<svg width="20" height="20" viewBox="0 0 20 20" fill="none" xmlns="http://www.w3.org/2000/svg">
<path d="M15.0001 17.3667L14.2584 12.9084C14.2348 12.7682 14.1756 12.6365 14.0866 12.5256C13.9977 12.4148 13.8818 12.3285 13.7501 12.2751C13.6148 12.2165 13.4663 12.1949 13.3199 12.2125C13.1735 12.23 13.0344 12.2861 12.9168 12.3751C12.0644 12.9796 11.0451 13.3044 10.0001 13.3044C8.95507 13.3044 7.93585 12.9796 7.08344 12.3751C6.9658 12.2861 6.82668 12.23 6.68028 12.2125C6.53388 12.1949 6.38544 12.2165 6.25011 12.2751C6.1184 12.3285 6.00254 12.4148 5.91357 12.5256C5.8246 12.6365 5.76546 12.7682 5.74177 12.9084L5.00011 17.3667C4.97824 17.4994 4.9888 17.6354 5.03088 17.7631C5.07297 17.8908 5.14532 18.0064 5.24177 18.1001C5.40039 18.253 5.61313 18.3369 5.83344 18.3334H6.00011L10.0001 17.5001L14.0001 18.3334C14.1346 18.3633 14.2745 18.3594 14.4071 18.322C14.5398 18.2846 14.6611 18.2149 14.7602 18.1191C14.8592 18.0233 14.933 17.9044 14.9749 17.7731C15.0168 17.6418 15.0254 17.5022 15.0001 17.3667Z" fill="#6DC6D8"/>
<path d="M9.99992 15C13.6818 15 16.6666 12.0152 16.6666 8.33329C16.6666 4.65139 13.6818 1.66663 9.99992 1.66663C6.31802 1.66663 3.33325 4.65139 3.33325 8.33329C3.33325 12.0152 6.31802 15 9.99992 15Z" fill="#0B869F"/>
<path d="M9.44174 10.4166C9.32482 10.4153 9.2095 10.3894 9.10326 10.3406C8.99701 10.2918 8.90223 10.2211 8.82507 10.1333L7.7084 8.88329C7.63048 8.80216 7.56978 8.70609 7.52998 8.60087C7.49018 8.49566 7.47209 8.38347 7.47681 8.27108C7.48152 8.15868 7.50895 8.04841 7.55743 7.9469C7.60591 7.84538 7.67443 7.75474 7.75888 7.68042C7.84333 7.60611 7.94196 7.54966 8.04881 7.51448C8.15566 7.4793 8.26853 7.46612 8.38061 7.47573C8.49269 7.48534 8.60166 7.51755 8.70097 7.57041C8.80027 7.62326 8.88784 7.69568 8.9584 7.78329L9.44174 8.33329L11.0417 6.53329C11.1905 6.37843 11.3933 6.28696 11.6078 6.27796C11.8223 6.26895 12.0321 6.34311 12.1933 6.48496C12.3545 6.62681 12.4547 6.82542 12.473 7.03936C12.4914 7.2533 12.4264 7.46606 12.2917 7.63329L10.0667 10.1333C9.98865 10.2222 9.89252 10.2934 9.78476 10.3423C9.67699 10.3911 9.56006 10.4165 9.44174 10.4166Z" fill="#6DC6D8"/>
</svg>
