<svg width="36" height="33" viewBox="0 0 36 33" fill="none" xmlns="http://www.w3.org/2000/svg">
<path fill-rule="evenodd" clip-rule="evenodd" d="M21.9815 32.625H14.0186C8.42672 32.625 5.6308 32.625 3.62235 31.3074C2.75287 30.7369 2.00633 30.004 1.42537 29.1504C0.0833742 27.1785 0.083374 24.4333 0.083374 18.9431C0.083374 13.4531 0.0833742 10.7079 1.42537 8.73599C2.00633 7.88233 2.75287 7.14936 3.62235 6.57897C4.9129 5.73232 6.52859 5.4297 9.00229 5.32154C10.1827 5.32154 11.1991 4.4433 11.4306 3.30681C11.7779 1.60209 13.3024 0.375 15.073 0.375H20.9271C22.6976 0.375 24.2221 1.60209 24.5695 3.30681C24.801 4.4433 25.8173 5.32154 26.9978 5.32154C29.4715 5.4297 31.0871 5.73232 32.3778 6.57897C33.2471 7.14936 33.9937 7.88233 34.5747 8.73599C35.9167 10.7079 35.9167 13.4531 35.9167 18.9431C35.9167 24.4333 35.9167 27.1785 34.5747 29.1504C33.9937 30.004 33.2471 30.7369 32.3778 31.3074C30.3693 32.625 27.5735 32.625 21.9815 32.625ZM23.8583 12.1993C23.8583 11.4572 23.2566 10.8556 22.5145 10.8556C21.7724 10.8556 21.1708 11.4572 21.1708 12.1993V12.4565C18.5368 11.1226 15.2375 11.5562 13.0362 13.7573C10.295 16.4986 10.295 20.943 13.0362 23.6842C15.7775 26.4253 20.2219 26.4253 22.963 23.6842C24.1293 22.5178 24.8007 21.0395 24.9737 19.5179C25.0576 18.7804 24.5278 18.1146 23.7905 18.0308C23.0531 17.9469 22.3873 18.4767 22.3034 19.214C22.1965 20.1536 21.784 21.0625 21.0627 21.7838C19.371 23.4755 16.6283 23.4755 14.9366 21.7838C13.2449 20.0921 13.2449 17.3494 14.9366 15.6577C16.0971 14.4973 17.7523 14.1328 19.2234 14.5646C18.6696 14.8225 18.3455 15.4359 18.4768 16.0596C18.6298 16.7858 19.3424 17.2505 20.0687 17.0975L22.7915 16.5242C23.4132 16.3932 23.8583 15.8446 23.8583 15.2093V12.1993Z" fill="#474747"/>
</svg>
