<svg width="36" height="36" viewBox="0 0 36 36" fill="none" xmlns="http://www.w3.org/2000/svg">
<path d="M0 7.884C0 9.276 0.372 10.596 1.116 11.844C2.004 9.348 3.396 7.164 5.292 5.292C7.188 3.42 9.372 2.028 11.844 1.116C10.572 0.372 9.252 0 7.884 0C5.7 0 3.84 0.78 2.304 2.34C0.768 3.9 0 5.748 0 7.884ZM2.268 18C2.268 20.088 2.664 22.08 3.456 23.976C4.248 25.872 5.352 27.552 6.768 29.016V33.768C6.768 34.392 6.984 34.92 7.416 35.352C7.848 35.784 8.376 36 9 36C9.624 36 10.152 35.784 10.584 35.352C11.016 34.92 11.244 34.392 11.268 33.768V32.184C13.452 33.24 15.696 33.768 18 33.768C20.304 33.768 22.56 33.24 24.768 32.184V33.768C24.768 34.392 24.984 34.92 25.416 35.352C25.848 35.784 26.376 36 27 36C27.624 36 28.152 35.784 28.584 35.352C29.016 34.92 29.244 34.392 29.268 33.768V29.016C30.684 27.552 31.788 25.884 32.58 24.012C33.372 22.14 33.768 20.136 33.768 18C33.768 15.864 33.348 13.824 32.508 11.88C31.668 9.936 30.552 8.256 29.16 6.84C27.768 5.424 26.088 4.308 24.12 3.492C22.152 2.676 20.112 2.256 18 2.232C15.888 2.208 13.848 2.628 11.88 3.492C9.912 4.356 8.232 5.472 6.84 6.84C5.448 8.208 4.332 9.888 3.492 11.88C2.652 13.872 2.244 15.912 2.268 18ZM6.768 18C6.768 16.464 7.056 15.012 7.632 13.644C8.208 12.276 9.012 11.076 10.044 10.044C11.076 9.012 12.276 8.208 13.644 7.632C15.012 7.056 16.464 6.756 18 6.732C20.04 6.732 21.924 7.236 23.652 8.244C25.38 9.252 26.748 10.62 27.756 12.348C28.764 14.076 29.268 15.96 29.268 18C29.268 19.512 28.968 20.964 28.368 22.356C27.768 23.748 26.964 24.948 25.956 25.956C24.948 26.964 23.748 27.768 22.356 28.368C20.964 28.968 19.512 29.256 18 29.232C15.96 29.232 14.076 28.74 12.348 27.756C10.62 26.772 9.264 25.404 8.28 23.652C7.296 21.9 6.792 20.016 6.768 18ZM15.768 18C15.768 18.624 15.984 19.152 16.416 19.584C16.848 20.016 17.376 20.232 18 20.232H22.5C23.124 20.232 23.652 20.016 24.084 19.584C24.516 19.152 24.744 18.624 24.768 18C24.792 17.376 24.564 16.848 24.084 16.416C23.604 15.984 23.076 15.756 22.5 15.732H20.268V13.5C20.268 12.876 20.04 12.348 19.584 11.916C19.128 11.484 18.6 11.256 18 11.232C17.4 11.208 16.872 11.436 16.416 11.916C15.96 12.396 15.744 12.924 15.768 13.5V18ZM24.156 1.116C26.652 2.028 28.836 3.42 30.708 5.292C32.58 7.164 33.972 9.348 34.884 11.844C35.628 10.596 36 9.276 36 7.884C36 5.724 35.232 3.876 33.696 2.34C32.16 0.804 30.3 0.024 28.116 0C26.748 0 25.428 0.372 24.156 1.116Z" fill="#0B869F"/>
</svg>
