<svg width="44" height="43" viewBox="0 0 44 43" fill="none" xmlns="http://www.w3.org/2000/svg">
<path d="M24.9183 36.6786L23.947 38.3196C23.0813 39.7822 20.9188 39.7822 20.053 38.3196L19.0818 36.6786C18.3284 35.4058 17.9518 34.7696 17.3467 34.4176C16.7417 34.0657 15.9799 34.0526 14.4564 34.0264C12.2072 33.9876 10.7966 33.8498 9.6135 33.3598C7.41845 32.4505 5.6745 30.7067 4.76528 28.5115C4.08337 26.8653 4.08337 24.7782 4.08337 20.6042V18.8125C4.08337 12.9476 4.08337 10.0151 5.40347 7.86095C6.14214 6.65555 7.1556 5.6421 8.361 4.90343C10.5152 3.58333 13.4476 3.58333 19.3125 3.58333H24.6875C30.5524 3.58333 33.4848 3.58333 35.6391 4.90343C36.8445 5.6421 37.8579 6.65555 38.5966 7.86095C39.9167 10.0151 39.9167 12.9476 39.9167 18.8125V20.6042C39.9167 24.7782 39.9167 26.8653 39.2348 28.5115C38.3255 30.7067 36.5817 32.4505 34.3865 33.3598C33.2035 33.8498 31.7929 33.9876 29.5437 34.0264C28.02 34.0526 27.2584 34.0657 26.6534 34.4176C26.0483 34.7694 25.6715 35.4058 24.9183 36.6786Z" fill="#474747"/>
<path d="M30.9583 19.7083C30.9583 20.6979 30.1562 21.5 29.1667 21.5C28.1771 21.5 27.375 20.6979 27.375 19.7083C27.375 18.7188 28.1771 17.9167 29.1667 17.9167C30.1562 17.9167 30.9583 18.7188 30.9583 19.7083Z" fill="white"/>
<path d="M23.7917 19.7083C23.7917 20.6979 22.9896 21.5 22 21.5C21.0105 21.5 20.2084 20.6979 20.2084 19.7083C20.2084 18.7188 21.0105 17.9167 22 17.9167C22.9896 17.9167 23.7917 18.7188 23.7917 19.7083Z" fill="white"/>
<path d="M16.625 19.7083C16.625 20.6979 15.8228 21.5 14.8333 21.5C13.8438 21.5 13.0416 20.6979 13.0416 19.7083C13.0416 18.7188 13.8438 17.9167 14.8333 17.9167C15.8228 17.9167 16.625 18.7188 16.625 19.7083Z" fill="white"/>
</svg>
