<svg width="29" height="30" viewBox="0 0 29 30" fill="none" xmlns="http://www.w3.org/2000/svg">
<path fill-rule="evenodd" clip-rule="evenodd" d="M3.59577 11.3156C2.83634 11.9991 2.40271 12.9727 2.40271 13.9945V23.2014C2.40271 25.1919 4.01628 26.8054 6.00671 26.8054H22.8254C24.8159 26.8054 26.4294 25.1919 26.4294 23.2014V13.9945C26.4294 12.9727 25.9957 11.9991 25.2364 11.3156L16.827 3.74722C15.4564 2.51366 13.3757 2.51366 12.0051 3.74723L3.59577 11.3156ZM13.2147 15.9934C11.8878 15.9934 10.8121 17.0691 10.8121 18.3961V23.2014C10.8121 23.8649 11.3499 24.4027 12.0134 24.4027H16.8187C17.4822 24.4027 18.0201 23.8649 18.0201 23.2014V18.3961C18.0201 17.0691 16.9444 15.9934 15.6174 15.9934H13.2147Z" fill="#0B869F"/>
</svg>
