<svg width="379" height="71" viewBox="0 0 379 71" fill="none" xmlns="http://www.w3.org/2000/svg">
<path fill-rule="evenodd" clip-rule="evenodd" d="M165.037 69.5496C166.761 71.1002 169.153 71.1869 171.71 70.1809C176.603 68.2591 175.214 68.0787 180.178 70.1462C183.367 71.4749 186.289 71.1037 187.942 68.7239C189.469 66.5315 189.313 63.7702 189.063 61.1095C188.713 57.3699 187.68 53.776 185.977 50.3244C186.971 43.1852 186.527 37.5342 185.78 33.4581C184.717 27.6649 182.546 25.6459 181.381 33.3991C181.26 34.1935 181.202 35.0296 181.181 35.2655C180.719 40.7812 180.316 46.2795 175.803 46.2587C171.625 45.1764 171.389 41.5894 171.066 35.935C171.045 35.5742 170.972 34.2976 170.845 33.3957C169.765 25.691 167.459 27.5088 166.479 33.3957C165.887 36.9583 165.561 42.7273 165.811 50.3729C164.437 54.0674 163.378 57.7793 163.001 61.6125C162.689 64.7762 162.657 67.4092 165.037 69.5496Z" fill="#A0A0A5"/>
<path fill-rule="evenodd" clip-rule="evenodd" d="M138.305 66.5671C140.029 68.1177 142.421 68.2044 144.977 67.1984C149.87 65.2766 148.482 65.0962 153.445 67.1637C156.634 68.4924 159.556 68.1212 161.21 65.7415C162.737 63.5491 162.581 60.7877 162.331 58.127C161.98 54.3874 160.948 50.7936 159.244 47.3419C160.239 40.2027 159.794 34.5517 159.047 30.4756C157.985 24.6824 155.814 22.6634 154.648 30.4167C154.528 31.2111 154.469 32.0471 154.448 32.283C153.986 37.7987 153.583 43.297 149.07 43.2762C144.892 42.1939 144.657 38.607 144.333 32.9525C144.313 32.5917 144.239 31.3151 144.112 30.4132C143.033 22.7085 140.726 24.5263 139.746 30.4132C139.155 33.9758 138.828 39.7448 139.078 47.3905C137.704 51.0849 136.645 54.7968 136.269 58.63C135.957 61.7937 135.924 64.4267 138.305 66.5671Z" fill="#A0A0A5"/>
<path fill-rule="evenodd" clip-rule="evenodd" d="M111.934 62.7277C113.658 64.2784 116.05 64.3651 118.607 63.3591C123.5 61.4373 122.111 61.2569 127.074 63.3244C130.264 64.653 133.185 64.2818 134.839 61.9021C136.366 59.7097 136.21 56.9484 135.96 54.2877C135.61 50.5481 134.577 46.9542 132.873 43.5025C133.868 36.3633 133.424 30.7123 132.676 26.6363C131.614 20.8431 129.443 18.8241 128.278 26.5773C128.157 27.3717 128.098 28.2077 128.078 28.4436C127.616 33.9593 127.213 39.4577 122.699 39.4369C118.521 38.3545 118.286 34.7676 117.962 29.1131C117.942 28.7524 117.868 27.4758 117.742 26.5738C116.662 18.8692 114.355 20.6869 113.376 26.5738C112.784 30.1365 112.458 35.9054 112.708 43.5511C111.334 47.2456 110.274 50.9574 109.898 54.7907C109.586 57.9544 109.554 60.5874 111.934 62.7277Z" fill="#E07B00"/>
<path fill-rule="evenodd" clip-rule="evenodd" d="M84.4791 57.4852C86.2032 59.0359 88.5953 59.1226 91.152 58.1166C96.0449 56.1948 94.6562 56.0144 99.6197 58.0819C102.809 59.4105 105.731 59.0393 107.384 56.6596C108.911 54.4672 108.755 51.7059 108.505 49.0452C108.155 45.3056 107.122 41.7117 105.419 38.26C106.413 31.1209 105.969 25.4699 105.222 21.3938C104.16 15.6006 101.988 13.5816 100.823 21.3348C100.702 22.1292 100.644 22.9652 100.623 23.2011C100.161 28.7168 99.758 34.2152 95.2446 34.1944C91.0667 33.1121 90.8313 29.5251 90.5077 23.8706C90.4871 23.5099 90.4135 22.2333 90.287 21.3313C89.2072 13.6267 86.9005 15.4445 85.9208 21.3313C85.3294 24.894 85.0028 30.6629 85.2529 38.3086C83.8789 42.0031 82.8197 45.7149 82.4431 49.5482C82.1312 52.7119 82.0989 55.3449 84.4791 57.4852Z" fill="#A0A0A5"/>
<path fill-rule="evenodd" clip-rule="evenodd" d="M57.0243 51.3441C58.7484 52.8947 61.1404 52.9814 63.6972 51.9754C68.5901 50.0536 67.2014 49.8732 72.1649 51.9407C75.3542 53.2694 78.2758 52.8982 79.9293 50.5184C81.4563 48.326 81.3004 45.5647 81.0503 42.904C80.7002 39.1644 79.6675 35.5705 77.9639 32.1189C78.9584 24.9797 78.5141 19.3287 77.7668 15.2526C76.7047 9.45938 74.5333 7.44043 73.3682 15.1936C73.2476 15.988 73.1887 16.8241 73.1681 17.06C72.7062 22.5757 72.3031 28.074 67.7898 28.0532C63.6119 26.9709 63.3765 23.3839 63.0529 17.7295C63.0323 17.3687 62.9587 16.0921 62.8322 15.1902C61.7524 7.48552 59.4457 9.30328 58.466 15.1902C57.8746 18.7528 57.548 24.5218 57.7981 32.1674C56.4241 35.8619 55.3649 39.5738 54.9883 43.407C54.6764 46.5707 54.644 49.2037 57.0243 51.3441Z" fill="#A0A0A5"/>
<path fill-rule="evenodd" clip-rule="evenodd" d="M29.6048 46.4144C31.329 47.9651 33.721 48.0518 36.2778 47.0458C41.1706 45.124 39.7819 44.9436 44.7454 47.0111C47.9348 48.3397 50.8564 47.9685 52.5099 45.5888C54.0369 43.3964 53.881 40.6351 53.6309 37.9744C53.2808 34.2348 52.248 30.6409 50.5445 27.1892C51.539 20.0501 51.0947 14.3991 50.3474 10.323C49.2852 4.52976 47.1139 2.5108 45.9488 10.264C45.8282 11.0584 45.7693 11.8944 45.7487 12.1303C45.2868 17.646 44.8837 23.1444 40.3704 23.1236C36.1924 22.0413 35.9571 18.4543 35.6334 12.7998C35.6128 12.4391 35.5393 11.1625 35.4128 10.2605C34.333 2.5559 32.0263 4.37365 31.0465 10.2605C30.4551 13.8232 30.1286 19.5921 30.3786 27.2378C29.0046 30.9323 27.9454 34.6441 27.5688 38.4774C27.257 41.6411 27.2246 44.2741 29.6048 46.4144Z" fill="#A0A0A5"/>
<path fill-rule="evenodd" clip-rule="evenodd" d="M2.18553 41.2733C3.90966 42.8239 6.30168 42.9106 8.85845 41.9046C13.7513 39.9828 12.3626 39.8024 17.3261 41.8699C20.5155 43.1986 23.4371 42.8274 25.0906 40.4476C26.6176 38.2552 26.4617 35.4939 26.2116 32.8332C25.8614 29.0936 24.8287 25.4997 23.1252 22.0481C24.1197 14.9089 23.6754 9.25788 22.9281 5.18181C21.8659 -0.611416 19.6946 -2.63037 18.5295 5.12284C18.4088 5.91724 18.35 6.75327 18.3294 6.98915C17.8675 12.5049 17.4644 18.0032 12.9511 17.9824C8.77313 16.9001 8.53775 13.3131 8.21411 7.65867C8.19351 7.2979 8.11996 6.02131 7.99344 5.11937C6.91365 -2.58528 4.60697 -0.767521 3.62721 5.11937C3.03583 8.68203 2.70925 14.451 2.95933 22.0966C1.58532 25.7911 0.526131 29.503 0.149529 33.3362C-0.162345 36.4999 -0.194709 39.1329 2.18553 41.2733Z" fill="#A0A0A5"/>
<path fill-rule="evenodd" clip-rule="evenodd" d="M354.814 41.2733C356.538 42.8239 358.93 42.9106 361.487 41.9046C366.38 39.9828 364.991 39.8024 369.955 41.8699C373.144 43.1986 376.065 42.8274 377.719 40.4476C379.246 38.2552 379.09 35.4939 378.84 32.8332C378.49 29.0936 377.457 25.4997 375.754 22.0481C376.748 14.9089 376.304 9.25788 375.556 5.18181C374.494 -0.611416 372.323 -2.63037 371.158 5.12284C371.037 5.91724 370.978 6.75327 370.958 6.98915C370.496 12.5049 370.093 18.0032 365.579 17.9824C361.402 16.9001 361.166 13.3131 360.843 7.65867C360.822 7.2979 360.748 6.02131 360.622 5.11937C359.542 -2.58528 357.235 -0.767521 356.256 5.11937C355.664 8.68203 355.338 14.451 355.588 22.0966C354.214 25.7911 353.155 29.503 352.778 33.3362C352.466 36.4999 352.434 39.1329 354.814 41.2733Z" fill="#A0A0A5"/>
<path fill-rule="evenodd" clip-rule="evenodd" d="M326.934 46.4144C328.658 47.9651 331.05 48.0518 333.607 47.0458C338.5 45.124 337.111 44.9436 342.075 47.0111C345.264 48.3397 348.186 47.9685 349.839 45.5888C351.366 43.3964 351.21 40.6351 350.96 37.9744C350.61 34.2348 349.578 30.6409 347.874 27.1892C348.868 20.0501 348.424 14.3991 347.677 10.323C346.615 4.52976 344.443 2.5108 343.278 10.264C343.158 11.0584 343.099 11.8944 343.078 12.1303C342.616 17.646 342.213 23.1444 337.7 23.1236C333.522 22.0413 333.287 18.4543 332.963 12.7998C332.942 12.4391 332.869 11.1625 332.742 10.2605C331.662 2.5559 329.356 4.37365 328.376 10.2605C327.785 13.8232 327.458 19.5921 327.708 27.2378C326.334 30.9323 325.275 34.6441 324.898 38.4774C324.586 41.6411 324.554 44.2741 326.934 46.4144Z" fill="#A0A0A5"/>
<path fill-rule="evenodd" clip-rule="evenodd" d="M299.42 51.3441C301.144 52.8947 303.536 52.9814 306.093 51.9754C310.986 50.0536 309.597 49.8732 314.561 51.9407C317.75 53.2694 320.672 52.8982 322.325 50.5184C323.852 48.326 323.696 45.5647 323.446 42.904C323.096 39.1644 322.063 35.5705 320.36 32.1189C321.354 24.9797 320.91 19.3287 320.163 15.2526C319.101 9.45938 316.929 7.44043 315.764 15.1936C315.644 15.988 315.585 16.8241 315.564 17.06C315.102 22.5757 314.699 28.074 310.186 28.0532C306.008 26.9709 305.772 23.3839 305.449 17.7295C305.428 17.3687 305.355 16.0921 305.228 15.1902C304.148 7.48552 301.842 9.30328 300.862 15.1902C300.271 18.7528 299.944 24.5218 300.194 32.1674C298.82 35.8619 297.761 39.5738 297.384 43.407C297.072 46.5707 297.04 49.2037 299.42 51.3441Z" fill="#A0A0A5"/>
<path fill-rule="evenodd" clip-rule="evenodd" d="M273.05 57.4852C274.774 59.0359 277.166 59.1226 279.722 58.1166C284.615 56.1948 283.227 56.0144 288.19 58.0819C291.379 59.4105 294.301 59.0393 295.955 56.6596C297.482 54.4672 297.326 51.7059 297.076 49.0452C296.725 45.3056 295.693 41.7117 293.989 38.26C294.984 31.1209 294.539 25.4699 293.792 21.3938C292.73 15.6006 290.559 13.5816 289.393 21.3348C289.273 22.1292 289.214 22.9652 289.193 23.2011C288.731 28.7168 288.328 34.2152 283.815 34.1944C279.637 33.1121 279.402 29.5251 279.078 23.8706C279.058 23.5099 278.984 22.2333 278.857 21.3313C277.778 13.6267 275.471 15.4445 274.491 21.3313C273.9 24.894 273.573 30.6629 273.823 38.3086C272.449 42.0031 271.39 45.7149 271.014 49.5482C270.702 52.7119 270.669 55.3449 273.05 57.4852Z" fill="#A0A0A5"/>
<path fill-rule="evenodd" clip-rule="evenodd" d="M246.317 62.7277C248.042 64.2784 250.434 64.3651 252.99 63.3591C257.883 61.4373 256.495 61.2569 261.458 63.3244C264.647 64.653 267.569 64.2818 269.223 61.9021C270.75 59.7097 270.594 56.9484 270.344 54.2877C269.993 50.5481 268.961 46.9542 267.257 43.5025C268.252 36.3633 267.807 30.7123 267.06 26.6363C265.998 20.8431 263.827 18.8241 262.661 26.5773C262.541 27.3717 262.482 28.2077 262.461 28.4436C261.999 33.9593 261.596 39.4577 257.083 39.4369C252.905 38.3545 252.67 34.7676 252.346 29.1131C252.325 28.7524 252.252 27.4758 252.125 26.5738C251.046 18.8692 248.739 20.6869 247.759 26.5738C247.168 30.1365 246.841 35.9054 247.091 43.5511C245.717 47.2456 244.658 50.9574 244.281 54.7907C243.97 57.9544 243.937 60.5874 246.317 62.7277Z" fill="#E07B00"/>
<path fill-rule="evenodd" clip-rule="evenodd" d="M219.946 66.5671C221.671 68.1177 224.063 68.2044 226.619 67.1984C231.512 65.2766 230.123 65.0962 235.087 67.1637C238.276 68.4924 241.198 68.1212 242.851 65.7415C244.378 63.5491 244.223 60.7877 243.972 58.127C243.622 54.3874 242.59 50.7936 240.886 47.3419C241.881 40.2027 241.436 34.5517 240.689 30.4756C239.627 24.6824 237.455 22.6634 236.29 30.4167C236.17 31.2111 236.111 32.0471 236.09 32.283C235.628 37.7987 235.225 43.297 230.712 43.2762C226.534 42.1939 226.299 38.607 225.975 32.9525C225.954 32.5917 225.881 31.3151 225.754 30.4132C224.675 22.7085 222.368 24.5263 221.388 30.4132C220.797 33.9758 220.47 39.7448 220.72 47.3905C219.346 51.0849 218.287 54.7968 217.91 58.63C217.599 61.7937 217.566 64.4267 219.946 66.5671Z" fill="#A0A0A5"/>
<path fill-rule="evenodd" clip-rule="evenodd" d="M192.492 69.5496C194.216 71.1002 196.608 71.1869 199.164 70.1809C204.057 68.2591 202.669 68.0787 207.632 70.1462C210.821 71.4749 213.743 71.1037 215.397 68.7239C216.924 66.5315 216.768 63.7702 216.518 61.1095C216.167 57.3699 215.135 53.776 213.431 50.3244C214.426 43.1852 213.981 37.5342 213.234 33.4581C212.172 27.6649 210.001 25.6459 208.836 33.3991C208.715 34.1935 208.656 35.0296 208.635 35.2655C208.174 40.7812 207.77 46.2795 203.257 46.2587C199.079 45.1764 198.844 41.5894 198.52 35.935C198.5 35.5742 198.426 34.2976 198.299 33.3957C197.22 25.691 194.913 27.5088 193.933 33.3957C193.342 36.9583 193.015 42.7273 193.265 50.3729C191.891 54.0674 190.832 57.7793 190.456 61.6125C190.144 64.7762 190.111 67.4092 192.492 69.5496Z" fill="#A0A0A5"/>
<path d="M173.068 61.4113C172.593 61.4113 172.171 61.3314 171.802 61.1716C171.436 61.0118 171.148 60.7934 170.939 60.5164C170.733 60.2373 170.631 59.9209 170.633 59.5672C170.631 59.2924 170.69 59.0399 170.812 58.8098C170.933 58.5797 171.097 58.3879 171.304 58.2345C171.513 58.0789 171.745 57.9799 172.001 57.9373V57.8925C171.664 57.8179 171.391 57.6464 171.182 57.3779C170.976 57.1073 170.873 56.7952 170.876 56.4415C170.873 56.1049 170.967 55.8044 171.157 55.5402C171.346 55.276 171.606 55.0683 171.937 54.917C172.267 54.7636 172.644 54.6869 173.068 54.6869C173.488 54.6869 173.862 54.7636 174.19 54.917C174.52 55.0683 174.78 55.276 174.97 55.5402C175.161 55.8044 175.257 56.1049 175.257 56.4415C175.257 56.7952 175.152 57.1073 174.941 57.3779C174.732 57.6464 174.463 57.8179 174.132 57.8925V57.9373C174.388 57.9799 174.618 58.0789 174.823 58.2345C175.029 58.3879 175.193 58.5797 175.315 58.8098C175.438 59.0399 175.5 59.2924 175.5 59.5672C175.5 59.9209 175.396 60.2373 175.187 60.5164C174.978 60.7934 174.691 61.0118 174.324 61.1716C173.96 61.3314 173.541 61.4113 173.068 61.4113ZM173.068 60.4973C173.313 60.4973 173.526 60.4557 173.707 60.3726C173.888 60.2874 174.029 60.1681 174.129 60.0147C174.229 59.8613 174.28 59.6844 174.283 59.4841C174.28 59.2753 174.226 59.091 174.12 58.9312C174.015 58.7693 173.871 58.6425 173.688 58.5509C173.507 58.4593 173.3 58.4135 173.068 58.4135C172.834 58.4135 172.625 58.4593 172.442 58.5509C172.258 58.6425 172.113 58.7693 172.007 58.9312C171.903 59.091 171.851 59.2753 171.854 59.4841C171.851 59.6844 171.9 59.8613 172.001 60.0147C172.101 60.1659 172.241 60.2842 172.422 60.3694C172.606 60.4547 172.821 60.4973 173.068 60.4973ZM173.068 57.5154C173.268 57.5154 173.445 57.4749 173.599 57.3939C173.754 57.313 173.877 57.2 173.966 57.0551C174.056 56.9103 174.101 56.743 174.104 56.5534C174.101 56.3659 174.057 56.2018 173.969 56.0612C173.882 55.9184 173.76 55.8087 173.605 55.732C173.449 55.6532 173.27 55.6137 173.068 55.6137C172.861 55.6137 172.679 55.6532 172.521 55.732C172.366 55.8087 172.245 55.9184 172.157 56.0612C172.072 56.2018 172.03 56.3659 172.033 56.5534C172.03 56.743 172.073 56.9103 172.16 57.0551C172.25 57.1979 172.372 57.3108 172.528 57.3939C172.686 57.4749 172.866 57.5154 173.068 57.5154ZM178.97 61.4465C178.444 61.4465 177.992 61.3133 177.615 61.047C177.24 60.7785 176.951 60.3918 176.749 59.8868C176.549 59.3797 176.449 58.7693 176.449 58.0555C176.451 57.3417 176.552 56.7345 176.752 56.2338C176.955 55.7309 177.243 55.3474 177.618 55.0832C177.995 54.819 178.446 54.6869 178.97 54.6869C179.494 54.6869 179.945 54.819 180.322 55.0832C180.699 55.3474 180.988 55.7309 181.188 56.2338C181.391 56.7366 181.492 57.3439 181.492 58.0555C181.492 58.7714 181.391 59.3829 181.188 59.89C180.988 60.395 180.699 60.7806 180.322 61.047C179.947 61.3133 179.497 61.4465 178.97 61.4465ZM178.97 60.4461C179.379 60.4461 179.702 60.2448 179.939 59.8421C180.177 59.4373 180.297 58.8417 180.297 58.0555C180.297 57.5356 180.242 57.0988 180.134 56.7451C180.025 56.3914 179.872 56.1251 179.673 55.9461C179.475 55.765 179.241 55.6745 178.97 55.6745C178.563 55.6745 178.242 55.8769 178.005 56.2817C177.769 56.6844 177.649 57.2757 177.647 58.0555C177.645 58.5775 177.697 59.0164 177.804 59.3723C177.912 59.7281 178.066 59.9966 178.264 60.1777C178.462 60.3566 178.698 60.4461 178.97 60.4461Z" fill="#FFFBFB"/>
<path d="M200.669 61.4113C200.194 61.4113 199.772 61.3314 199.404 61.1716C199.037 61.0118 198.75 60.7934 198.541 60.5164C198.334 60.2373 198.232 59.9209 198.234 59.5672C198.232 59.2924 198.291 59.0399 198.413 58.8098C198.534 58.5797 198.698 58.3879 198.905 58.2345C199.114 58.0789 199.346 57.9799 199.602 57.9373V57.8925C199.265 57.8179 198.992 57.6464 198.784 57.3779C198.577 57.1073 198.475 56.7952 198.477 56.4415C198.475 56.1049 198.568 55.8044 198.758 55.5402C198.948 55.276 199.208 55.0683 199.538 54.917C199.868 54.7636 200.245 54.6869 200.669 54.6869C201.089 54.6869 201.463 54.7636 201.791 54.917C202.121 55.0683 202.381 55.276 202.571 55.5402C202.763 55.8044 202.859 56.1049 202.859 56.4415C202.859 56.7952 202.753 57.1073 202.542 57.3779C202.333 57.6464 202.064 57.8179 201.734 57.8925V57.9373C201.989 57.9799 202.219 58.0789 202.424 58.2345C202.631 58.3879 202.795 58.5797 202.916 58.8098C203.04 59.0399 203.102 59.2924 203.102 59.5672C203.102 59.9209 202.997 60.2373 202.788 60.5164C202.579 60.7934 202.292 61.0118 201.925 61.1716C201.561 61.3314 201.142 61.4113 200.669 61.4113ZM200.669 60.4973C200.914 60.4973 201.127 60.4557 201.309 60.3726C201.49 60.2874 201.63 60.1681 201.73 60.0147C201.831 59.8613 201.882 59.6844 201.884 59.4841C201.882 59.2753 201.827 59.091 201.721 58.9312C201.616 58.7693 201.473 58.6425 201.289 58.5509C201.108 58.4593 200.902 58.4135 200.669 58.4135C200.435 58.4135 200.226 58.4593 200.043 58.5509C199.86 58.6425 199.715 58.7693 199.608 58.9312C199.504 59.091 199.453 59.2753 199.455 59.4841C199.453 59.6844 199.502 59.8613 199.602 60.0147C199.702 60.1659 199.843 60.2842 200.024 60.3694C200.207 60.4547 200.422 60.4973 200.669 60.4973ZM200.669 57.5154C200.87 57.5154 201.046 57.4749 201.2 57.3939C201.355 57.313 201.478 57.2 201.567 57.0551C201.657 56.9103 201.703 56.743 201.705 56.5534C201.703 56.3659 201.658 56.2018 201.571 56.0612C201.483 55.9184 201.362 55.8087 201.206 55.732C201.051 55.6532 200.872 55.6137 200.669 55.6137C200.463 55.6137 200.28 55.6532 200.123 55.732C199.967 55.8087 199.846 55.9184 199.758 56.0612C199.673 56.2018 199.632 56.3659 199.634 56.5534C199.632 56.743 199.674 56.9103 199.762 57.0551C199.851 57.1979 199.974 57.3108 200.129 57.3939C200.287 57.4749 200.467 57.5154 200.669 57.5154ZM206.428 61.4113C206.002 61.4113 205.62 61.3314 205.284 61.1716C204.947 61.0097 204.68 60.7881 204.481 60.5069C204.285 60.2256 204.181 59.9039 204.168 59.5417H205.319C205.34 59.8101 205.456 60.0296 205.667 60.2C205.878 60.3684 206.132 60.4525 206.428 60.4525C206.66 60.4525 206.867 60.3993 207.048 60.2927C207.229 60.1862 207.372 60.0381 207.476 59.8485C207.58 59.6588 207.632 59.4426 207.629 59.1997C207.632 58.9525 207.579 58.7331 207.473 58.5413C207.366 58.3495 207.22 58.1993 207.035 58.0907C206.85 57.9799 206.637 57.9245 206.396 57.9245C206.2 57.9223 206.007 57.9586 205.817 58.0331C205.628 58.1077 205.477 58.2057 205.367 58.3272L204.296 58.1514L204.638 54.7764H208.435V55.7672H205.619L205.431 57.5026H205.469C205.59 57.3598 205.762 57.2416 205.984 57.1478C206.205 57.052 206.448 57.004 206.712 57.004C207.109 57.004 207.462 57.0978 207.773 57.2853C208.084 57.4706 208.329 57.7263 208.508 58.0523C208.687 58.3783 208.777 58.7512 208.777 59.1709C208.777 59.6034 208.677 59.9891 208.476 60.3279C208.278 60.6645 208.002 60.9298 207.649 61.1237C207.297 61.3154 206.89 61.4113 206.428 61.4113Z" fill="#FFFBFB"/>
<path d="M144.722 57.7473L147.506 52.2373V52.1926H144.274V51.2018H148.733V52.2149L145.952 57.7473H144.722ZM151.959 57.8367C151.484 57.8367 151.062 57.7568 150.694 57.597C150.327 57.4372 150.04 57.2188 149.831 56.9419C149.624 56.6627 149.522 56.3463 149.524 55.9926C149.522 55.7178 149.581 55.4653 149.703 55.2352C149.824 55.0051 149.988 54.8133 150.195 54.6599C150.404 54.5044 150.636 54.4053 150.892 54.3627V54.3179C150.555 54.2433 150.282 54.0718 150.074 53.8034C149.867 53.5328 149.765 53.2206 149.767 52.8669C149.765 52.5303 149.858 52.2299 150.048 51.9656C150.238 51.7014 150.498 51.4937 150.828 51.3424C151.158 51.189 151.535 51.1123 151.959 51.1123C152.379 51.1123 152.753 51.189 153.081 51.3424C153.411 51.4937 153.671 51.7014 153.861 51.9656C154.053 52.2299 154.149 52.5303 154.149 52.8669C154.149 53.2206 154.043 53.5328 153.832 53.8034C153.623 54.0718 153.354 54.2433 153.024 54.3179V54.3627C153.279 54.4053 153.509 54.5044 153.714 54.6599C153.921 54.8133 154.085 55.0051 154.206 55.2352C154.33 55.4653 154.391 55.7178 154.391 55.9926C154.391 56.3463 154.287 56.6627 154.078 56.9419C153.869 57.2188 153.582 57.4372 153.215 57.597C152.851 57.7568 152.432 57.8367 151.959 57.8367ZM151.959 56.9227C152.204 56.9227 152.417 56.8811 152.598 56.798C152.78 56.7128 152.92 56.5935 153.02 56.4401C153.12 56.2867 153.172 56.1098 153.174 55.9095C153.172 55.7007 153.117 55.5164 153.011 55.3566C152.906 55.1947 152.763 55.0679 152.579 54.9763C152.398 54.8847 152.191 54.8389 151.959 54.8389C151.725 54.8389 151.516 54.8847 151.333 54.9763C151.15 55.0679 151.005 55.1947 150.898 55.3566C150.794 55.5164 150.743 55.7007 150.745 55.9095C150.743 56.1098 150.792 56.2867 150.892 56.4401C150.992 56.5914 151.133 56.7096 151.314 56.7948C151.497 56.8801 151.712 56.9227 151.959 56.9227ZM151.959 53.9408C152.16 53.9408 152.336 53.9003 152.49 53.8193C152.645 53.7384 152.768 53.6254 152.857 53.4806C152.947 53.3357 152.993 53.1684 152.995 52.9788C152.993 52.7913 152.948 52.6272 152.861 52.4866C152.773 52.3438 152.652 52.2341 152.496 52.1574C152.341 52.0786 152.162 52.0392 151.959 52.0392C151.753 52.0392 151.57 52.0786 151.413 52.1574C151.257 52.2341 151.136 52.3438 151.048 52.4866C150.963 52.6272 150.922 52.7913 150.924 52.9788C150.922 53.1684 150.964 53.3357 151.052 53.4806C151.141 53.6233 151.264 53.7362 151.419 53.8193C151.577 53.9003 151.757 53.9408 151.959 53.9408Z" fill="#FFFBFB"/>
<path d="M119.755 53.2622C119.441 53.26 119.136 53.2057 118.837 53.0992C118.539 52.9905 118.271 52.8147 118.032 52.5718C117.793 52.3268 117.604 52.0019 117.463 51.597C117.322 51.1901 117.253 50.6862 117.255 50.0853C117.255 49.5249 117.315 49.0253 117.434 48.5864C117.554 48.1475 117.725 47.7767 117.949 47.4742C118.173 47.1695 118.442 46.9372 118.757 46.7774C119.075 46.6176 119.43 46.5377 119.822 46.5377C120.233 46.5377 120.597 46.6187 120.915 46.7806C121.234 46.9426 121.492 47.1641 121.688 47.4454C121.884 47.7245 122.006 48.0399 122.053 48.3914H120.886C120.826 48.14 120.704 47.9397 120.519 47.7906C120.335 47.6393 120.103 47.5636 119.822 47.5636C119.368 47.5636 119.019 47.7607 118.773 48.1549C118.531 48.5491 118.408 49.0903 118.406 49.7785H118.451C118.555 49.591 118.69 49.4301 118.857 49.2959C119.023 49.1617 119.21 49.0583 119.419 48.9859C119.63 48.9113 119.853 48.874 120.087 48.874C120.471 48.874 120.815 48.9656 121.119 49.1489C121.426 49.3321 121.669 49.5846 121.848 49.9063C122.027 50.2259 122.115 50.5924 122.113 51.0058C122.115 51.4362 122.017 51.8229 121.819 52.1659C121.621 52.5068 121.345 52.7753 120.992 52.9713C120.638 53.1673 120.226 53.2643 119.755 53.2622ZM119.748 52.3034C119.981 52.3034 120.188 52.2469 120.371 52.134C120.555 52.021 120.7 51.8687 120.806 51.6769C120.913 51.4852 120.965 51.27 120.963 51.0313C120.965 50.797 120.914 50.585 120.809 50.3953C120.707 50.2057 120.565 50.0555 120.384 49.9447C120.203 49.8339 119.996 49.7785 119.764 49.7785C119.592 49.7785 119.431 49.8115 119.282 49.8776C119.132 49.9436 119.003 50.0352 118.892 50.1524C118.781 50.2675 118.694 50.4017 118.63 50.5551C118.568 50.7064 118.536 50.8683 118.534 51.0409C118.536 51.2689 118.589 51.4788 118.694 51.6705C118.798 51.8623 118.942 52.0157 119.125 52.1308C119.308 52.2458 119.516 52.3034 119.748 52.3034ZM125.613 53.2973C125.087 53.2973 124.635 53.1641 124.258 52.8978C123.883 52.6293 123.594 52.2426 123.392 51.7377C123.191 51.2306 123.091 50.6201 123.091 49.9063C123.093 49.1926 123.195 48.5853 123.395 48.0846C123.597 47.5818 123.886 47.1982 124.261 46.934C124.638 46.6698 125.089 46.5377 125.613 46.5377C126.137 46.5377 126.588 46.6698 126.965 46.934C127.342 47.1982 127.631 47.5818 127.831 48.0846C128.033 48.5874 128.135 49.1947 128.135 49.9063C128.135 50.6222 128.033 51.2337 127.831 51.7409C127.631 52.2458 127.342 52.6315 126.965 52.8978C126.59 53.1641 126.139 53.2973 125.613 53.2973ZM125.613 52.297C126.022 52.297 126.345 52.0956 126.581 51.6929C126.82 51.2881 126.939 50.6926 126.939 49.9063C126.939 49.3864 126.885 48.9497 126.776 48.596C126.668 48.2423 126.514 47.9759 126.316 47.797C126.118 47.6159 125.884 47.5253 125.613 47.5253C125.206 47.5253 124.884 47.7277 124.648 48.1325C124.411 48.5352 124.292 49.1265 124.29 49.9063C124.288 50.4284 124.34 50.8673 124.446 51.2231C124.555 51.5789 124.708 51.8474 124.907 52.0285C125.105 52.2075 125.34 52.297 125.613 52.297Z" fill="#FFFBFB"/>
<path d="M93.0122 47.8754C92.5371 47.8754 92.1152 47.7955 91.7466 47.6357C91.3801 47.4759 91.0925 47.2575 90.8837 46.9805C90.677 46.7014 90.5747 46.385 90.5769 46.0313C90.5747 45.7564 90.6344 45.5039 90.7558 45.2738C90.8773 45.0437 91.0413 44.8519 91.248 44.6985C91.4568 44.543 91.6891 44.4439 91.9448 44.4013V44.3566C91.6081 44.282 91.3354 44.1105 91.1266 43.842C90.9199 43.5714 90.8176 43.2593 90.8198 42.9056C90.8176 42.5689 90.9114 42.2685 91.101 42.0043C91.2906 41.7401 91.5506 41.5323 91.8808 41.3811C92.2111 41.2276 92.5882 41.1509 93.0122 41.1509C93.432 41.1509 93.8059 41.2276 94.134 41.3811C94.4643 41.5323 94.7242 41.7401 94.9139 42.0043C95.1056 42.2685 95.2015 42.5689 95.2015 42.9056C95.2015 43.2593 95.096 43.5714 94.8851 43.842C94.6763 44.1105 94.4068 44.282 94.0765 44.3566V44.4013C94.3322 44.4439 94.5623 44.543 94.7668 44.6985C94.9735 44.8519 95.1376 45.0437 95.259 45.2738C95.3826 45.5039 95.4444 45.7564 95.4444 46.0313C95.4444 46.385 95.34 46.7014 95.1312 46.9805C94.9224 47.2575 94.6347 47.4759 94.2683 47.6357C93.9039 47.7955 93.4852 47.8754 93.0122 47.8754ZM93.0122 46.9613C93.2573 46.9613 93.4703 46.9198 93.6514 46.8367C93.8325 46.7514 93.9732 46.6321 94.0733 46.4787C94.1734 46.3253 94.2246 46.1485 94.2267 45.9482C94.2246 45.7394 94.1703 45.5551 94.0637 45.3953C93.9593 45.2333 93.8155 45.1066 93.6323 45.0149C93.4511 44.9233 93.2445 44.8775 93.0122 44.8775C92.7779 44.8775 92.569 44.9233 92.3858 45.0149C92.2026 45.1066 92.0577 45.2333 91.9511 45.3953C91.8467 45.5551 91.7956 45.7394 91.7977 45.9482C91.7956 46.1485 91.8446 46.3253 91.9448 46.4787C92.0449 46.63 92.1855 46.7482 92.3666 46.8335C92.5499 46.9187 92.7651 46.9613 93.0122 46.9613ZM93.0122 43.9794C93.2125 43.9794 93.3894 43.9389 93.5428 43.858C93.6983 43.777 93.8208 43.6641 93.9103 43.5192C93.9998 43.3743 94.0456 43.2071 94.0477 43.0174C94.0456 42.8299 94.0009 42.6659 93.9135 42.5252C93.8261 42.3825 93.7047 42.2727 93.5492 42.196C93.3936 42.1172 93.2146 42.0778 93.0122 42.0778C92.8056 42.0778 92.6234 42.1172 92.4657 42.196C92.3102 42.2727 92.1887 42.3825 92.1014 42.5252C92.0161 42.6659 91.9746 42.8299 91.9767 43.0174C91.9746 43.2071 92.0172 43.3743 92.1046 43.5192C92.194 43.662 92.3166 43.7749 92.4721 43.858C92.6298 43.9389 92.8098 43.9794 93.0122 43.9794ZM98.9145 47.9105C98.3882 47.9105 97.9365 47.7774 97.5594 47.511C97.1844 47.2426 96.8957 46.8558 96.6932 46.3509C96.493 45.8438 96.3928 45.2333 96.3928 44.5196C96.395 43.8058 96.4962 43.1985 96.6964 42.6978C96.8989 42.195 97.1876 41.8115 97.5626 41.5473C97.9397 41.283 98.3903 41.1509 98.9145 41.1509C99.4386 41.1509 99.8893 41.283 100.266 41.5473C100.644 41.8115 100.932 42.195 101.133 42.6978C101.335 43.2007 101.436 43.8079 101.436 44.5196C101.436 45.2355 101.335 45.847 101.133 46.3541C100.932 46.859 100.644 47.2447 100.266 47.511C99.8914 47.7774 99.4408 47.9105 98.9145 47.9105ZM98.9145 46.9102C99.3236 46.9102 99.6464 46.7088 99.8829 46.3061C100.122 45.9013 100.241 45.3058 100.241 44.5196C100.241 43.9997 100.186 43.5629 100.078 43.2092C99.9692 42.8555 99.8158 42.5892 99.6176 42.4102C99.4195 42.2291 99.1851 42.1385 98.9145 42.1385C98.5075 42.1385 98.1858 42.3409 97.9493 42.7458C97.7128 43.1485 97.5935 43.7397 97.5913 44.5196C97.5892 45.0416 97.6414 45.4805 97.7479 45.8363C97.8566 46.1921 98.01 46.4606 98.2082 46.6417C98.4063 46.8207 98.6418 46.9102 98.9145 46.9102Z" fill="#FFFBFB"/>
<path d="M64.9561 41.5188C64.4809 41.5188 64.0591 41.4389 63.6904 41.2791C63.324 41.1193 63.0363 40.9009 62.8275 40.6239C62.6208 40.3448 62.5186 40.0284 62.5207 39.6747C62.5186 39.3998 62.5782 39.1474 62.6997 38.9172C62.8211 38.6871 62.9852 38.4954 63.1919 38.342C63.4007 38.1864 63.6329 38.0873 63.8886 38.0447V38C63.552 37.9254 63.2792 37.7539 63.0704 37.4854C62.8637 37.2148 62.7615 36.9027 62.7636 36.549C62.7615 36.2123 62.8552 35.9119 63.0449 35.6477C63.2345 35.3835 63.4944 35.1758 63.8247 35.0245C64.1549 34.8711 64.5321 34.7944 64.9561 34.7944C65.3758 34.7944 65.7498 34.8711 66.0779 35.0245C66.4081 35.1758 66.6681 35.3835 66.8577 35.6477C67.0495 35.9119 67.1453 36.2123 67.1453 36.549C67.1453 36.9027 67.0399 37.2148 66.8289 37.4854C66.6201 37.7539 66.3506 37.9254 66.0203 38V38.0447C66.276 38.0873 66.5061 38.1864 66.7107 38.342C66.9174 38.4954 67.0814 38.6871 67.2029 38.9172C67.3265 39.1474 67.3882 39.3998 67.3882 39.6747C67.3882 40.0284 67.2838 40.3448 67.075 40.6239C66.8662 40.9009 66.5786 41.1193 66.2121 41.2791C65.8478 41.4389 65.4291 41.5188 64.9561 41.5188ZM64.9561 40.6047C65.2011 40.6047 65.4142 40.5632 65.5953 40.4801C65.7764 40.3949 65.917 40.2756 66.0172 40.1221C66.1173 39.9687 66.1684 39.7919 66.1706 39.5916C66.1684 39.3828 66.1141 39.1985 66.0076 39.0387C65.9032 38.8768 65.7593 38.75 65.5761 38.6584C65.395 38.5668 65.1883 38.5209 64.9561 38.5209C64.7217 38.5209 64.5129 38.5668 64.3297 38.6584C64.1464 38.75 64.0015 38.8768 63.895 39.0387C63.7906 39.1985 63.7395 39.3828 63.7416 39.5916C63.7395 39.7919 63.7885 39.9687 63.8886 40.1221C63.9887 40.2734 64.1294 40.3917 64.3105 40.4769C64.4937 40.5621 64.7089 40.6047 64.9561 40.6047ZM64.9561 37.6229C65.1564 37.6229 65.3332 37.5824 65.4866 37.5014C65.6422 37.4204 65.7647 37.3075 65.8542 37.1626C65.9436 37.0177 65.9895 36.8505 65.9916 36.6609C65.9895 36.4734 65.9447 36.3093 65.8574 36.1687C65.77 36.0259 65.6485 35.9162 65.493 35.8395C65.3375 35.7606 65.1585 35.7212 64.9561 35.7212C64.7494 35.7212 64.5672 35.7606 64.4096 35.8395C64.254 35.9162 64.1326 36.0259 64.0452 36.1687C63.96 36.3093 63.9184 36.4734 63.9206 36.6609C63.9184 36.8505 63.961 37.0177 64.0484 37.1626C64.1379 37.3054 64.2604 37.4183 64.4159 37.5014C64.5736 37.5824 64.7537 37.6229 64.9561 37.6229ZM70.7145 41.5188C70.2884 41.5188 69.907 41.4389 69.5703 41.2791C69.2337 41.1172 68.9663 40.8956 68.7681 40.6143C68.5721 40.3331 68.4677 40.0114 68.4549 39.6491H69.6055C69.6268 39.9176 69.7429 40.1371 69.9539 40.3075C70.1648 40.4758 70.4183 40.56 70.7145 40.56C70.9468 40.56 71.1534 40.5067 71.3345 40.4002C71.5156 40.2937 71.6584 40.1456 71.7628 39.956C71.8672 39.7663 71.9183 39.5501 71.9162 39.3072C71.9183 39.06 71.8661 38.8405 71.7596 38.6488C71.6531 38.457 71.5071 38.3068 71.3218 38.1981C71.1364 38.0873 70.9233 38.0319 70.6825 38.0319C70.4865 38.0298 70.2937 38.066 70.1041 38.1406C69.9144 38.2152 69.7642 38.3132 69.6534 38.4346L68.5828 38.2589L68.9247 34.8839H72.7216V35.8746H69.9059L69.7173 37.6101H69.7557C69.8771 37.4673 70.0487 37.3491 70.2703 37.2553C70.4919 37.1594 70.7347 37.1115 70.999 37.1115C71.3953 37.1115 71.749 37.2052 72.06 37.3927C72.3711 37.5781 72.6161 37.8338 72.7951 38.1598C72.9741 38.4858 73.0636 38.8587 73.0636 39.2784C73.0636 39.7109 72.9634 40.0966 72.7632 40.4354C72.565 40.772 72.2891 41.0373 71.9354 41.2312C71.5838 41.4229 71.1769 41.5188 70.7145 41.5188Z" fill="#FFFBFB"/>
<path d="M38.0178 36.5109C37.5427 36.5109 37.1208 36.431 36.7522 36.2712C36.3857 36.1114 36.0981 35.893 35.8893 35.616C35.6826 35.3369 35.5803 35.0205 35.5825 34.6668C35.5803 34.3919 35.64 34.1394 35.7614 33.9093C35.8829 33.6792 36.047 33.4874 36.2536 33.334C36.4624 33.1785 36.6947 33.0794 36.9504 33.0368V32.9921C36.6137 32.9175 36.341 32.746 36.1322 32.4775C35.9255 32.2069 35.8232 31.8948 35.8254 31.5411C35.8232 31.2044 35.917 30.904 36.1066 30.6398C36.2963 30.3756 36.5562 30.1678 36.8864 30.0166C37.2167 29.8631 37.5938 29.7864 38.0178 29.7864C38.4376 29.7864 38.8115 29.8631 39.1396 30.0166C39.4699 30.1678 39.7298 30.3756 39.9195 30.6398C40.1112 30.904 40.2071 31.2044 40.2071 31.5411C40.2071 31.8948 40.1016 32.2069 39.8907 32.4775C39.6819 32.746 39.4124 32.9175 39.0821 32.9921V33.0368C39.3378 33.0794 39.5679 33.1785 39.7725 33.334C39.9791 33.4874 40.1432 33.6792 40.2646 33.9093C40.3882 34.1394 40.45 34.3919 40.45 34.6668C40.45 35.0205 40.3456 35.3369 40.1368 35.616C39.928 35.893 39.6404 36.1114 39.2739 36.2712C38.9095 36.431 38.4909 36.5109 38.0178 36.5109ZM38.0178 35.5968C38.2629 35.5968 38.4759 35.5553 38.657 35.4722C38.8382 35.3869 38.9788 35.2676 39.0789 35.1142C39.1791 34.9608 39.2302 34.784 39.2323 34.5837C39.2302 34.3749 39.1759 34.1906 39.0693 34.0308C38.9649 33.8688 38.8211 33.7421 38.6379 33.6504C38.4568 33.5588 38.2501 33.513 38.0178 33.513C37.7835 33.513 37.5747 33.5588 37.3914 33.6504C37.2082 33.7421 37.0633 33.8688 36.9568 34.0308C36.8524 34.1906 36.8012 34.3749 36.8034 34.5837C36.8012 34.784 36.8502 34.9608 36.9504 35.1142C37.0505 35.2655 37.1911 35.3837 37.3722 35.469C37.5555 35.5542 37.7707 35.5968 38.0178 35.5968ZM38.0178 32.6149C38.2181 32.6149 38.395 32.5744 38.5484 32.4935C38.7039 32.4125 38.8264 32.2996 38.9159 32.1547C39.0054 32.0098 39.0512 31.8426 39.0534 31.6529C39.0512 31.4654 39.0065 31.3014 38.9191 31.1607C38.8318 31.018 38.7103 30.9082 38.5548 30.8315C38.3992 30.7527 38.2203 30.7133 38.0178 30.7133C37.8112 30.7133 37.629 30.7527 37.4713 30.8315C37.3158 30.9082 37.1943 31.018 37.107 31.1607C37.0217 31.3014 36.9802 31.4654 36.9823 31.6529C36.9802 31.8426 37.0228 32.0098 37.1102 32.1547C37.1997 32.2975 37.3222 32.4104 37.4777 32.4935C37.6354 32.5744 37.8154 32.6149 38.0178 32.6149ZM43.7763 36.5109C43.3501 36.5109 42.9687 36.431 42.6321 36.2712C42.2955 36.1092 42.0281 35.8877 41.8299 35.6064C41.6339 35.3252 41.5295 35.0034 41.5167 34.6412H42.6673C42.6886 34.9097 42.8047 35.1291 43.0156 35.2996C43.2266 35.4679 43.4801 35.5521 43.7763 35.5521C44.0085 35.5521 44.2152 35.4988 44.3963 35.3923C44.5774 35.2857 44.7202 35.1377 44.8246 34.948C44.929 34.7584 44.9801 34.5421 44.978 34.2992C44.9801 34.0521 44.9279 33.8326 44.8214 33.6408C44.7148 33.4491 44.5689 33.2989 44.3835 33.1902C44.1982 33.0794 43.9851 33.024 43.7443 33.024C43.5483 33.0219 43.3555 33.0581 43.1658 33.1327C42.9762 33.2073 42.826 33.3053 42.7152 33.4267L41.6445 33.2509L41.9865 29.8759H45.7834V30.8667H42.9677L42.7791 32.6021H42.8175C42.9389 32.4594 43.1104 32.3411 43.332 32.2474C43.5536 32.1515 43.7965 32.1036 44.0607 32.1036C44.457 32.1036 44.8107 32.1973 45.1218 32.3848C45.4329 32.5702 45.6779 32.8259 45.8569 33.1519C46.0359 33.4778 46.1254 33.8507 46.1254 34.2705C46.1254 34.703 46.0252 35.0886 45.8249 35.4274C45.6268 35.7641 45.3508 36.0293 44.9972 36.2232C44.6456 36.415 44.2386 36.5109 43.7763 36.5109Z" fill="#FFFBFB"/>
<path d="M11.0178 32.5109C10.5427 32.5109 10.1208 32.431 9.75222 32.2712C9.38574 32.1114 9.0981 31.893 8.88929 31.616C8.68261 31.3369 8.58034 31.0205 8.58247 30.6668C8.58034 30.3919 8.64 30.1394 8.76145 29.9093C8.8829 29.6792 9.04696 29.4874 9.25364 29.334C9.46244 29.1785 9.69469 29.0794 9.95037 29.0368V28.9921C9.61372 28.9175 9.34099 28.746 9.13219 28.4775C8.92551 28.2069 8.82324 27.8948 8.82537 27.5411C8.82324 27.2044 8.91699 26.904 9.10662 26.6398C9.29625 26.3756 9.55619 26.1678 9.88645 26.0166C10.2167 25.8631 10.5938 25.7864 11.0178 25.7864C11.4376 25.7864 11.8115 25.8631 12.1396 26.0166C12.4699 26.1678 12.7298 26.3756 12.9195 26.6398C13.1112 26.904 13.2071 27.2044 13.2071 27.5411C13.2071 27.8948 13.1016 28.2069 12.8907 28.4775C12.6819 28.746 12.4124 28.9175 12.0821 28.9921V29.0368C12.3378 29.0794 12.5679 29.1785 12.7725 29.334C12.9791 29.4874 13.1432 29.6792 13.2646 29.9093C13.3882 30.1394 13.45 30.3919 13.45 30.6668C13.45 31.0205 13.3456 31.3369 13.1368 31.616C12.928 31.893 12.6404 32.1114 12.2739 32.2712C11.9095 32.431 11.4909 32.5109 11.0178 32.5109ZM11.0178 31.5968C11.2629 31.5968 11.4759 31.5553 11.657 31.4722C11.8382 31.3869 11.9788 31.2676 12.0789 31.1142C12.1791 30.9608 12.2302 30.784 12.2323 30.5837C12.2302 30.3749 12.1759 30.1906 12.0693 30.0308C11.9649 29.8688 11.8211 29.7421 11.6379 29.6504C11.4568 29.5588 11.2501 29.513 11.0178 29.513C10.7835 29.513 10.5747 29.5588 10.3914 29.6504C10.2082 29.7421 10.0633 29.8688 9.95676 30.0308C9.85236 30.1906 9.80122 30.3749 9.80335 30.5837C9.80122 30.784 9.85023 30.9608 9.95037 31.1142C10.0505 31.2655 10.1911 31.3837 10.3722 31.469C10.5555 31.5542 10.7707 31.5968 11.0178 31.5968ZM11.0178 28.6149C11.2181 28.6149 11.395 28.5744 11.5484 28.4935C11.7039 28.4125 11.8264 28.2996 11.9159 28.1547C12.0054 28.0098 12.0512 27.8426 12.0534 27.6529C12.0512 27.4654 12.0065 27.3014 11.9191 27.1607C11.8318 27.018 11.7103 26.9082 11.5548 26.8315C11.3992 26.7527 11.2203 26.7133 11.0178 26.7133C10.8112 26.7133 10.629 26.7527 10.4713 26.8315C10.3158 26.9082 10.1943 27.018 10.107 27.1607C10.0217 27.3014 9.9802 27.4654 9.98233 27.6529C9.9802 27.8426 10.0228 28.0098 10.1102 28.1547C10.1997 28.2975 10.3222 28.4104 10.4777 28.4935C10.6354 28.5744 10.8154 28.6149 11.0178 28.6149ZM16.7763 32.5109C16.3501 32.5109 15.9687 32.431 15.6321 32.2712C15.2955 32.1092 15.0281 31.8877 14.8299 31.6064C14.6339 31.3252 14.5295 31.0034 14.5167 30.6412H15.6673C15.6886 30.9097 15.8047 31.1291 16.0156 31.2996C16.2266 31.4679 16.4801 31.5521 16.7763 31.5521C17.0085 31.5521 17.2152 31.4988 17.3963 31.3923C17.5774 31.2857 17.7202 31.1377 17.8246 30.948C17.929 30.7584 17.9801 30.5421 17.978 30.2992C17.9801 30.0521 17.9279 29.8326 17.8214 29.6408C17.7148 29.4491 17.5689 29.2989 17.3835 29.1902C17.1982 29.0794 16.9851 29.024 16.7443 29.024C16.5483 29.0219 16.3555 29.0581 16.1658 29.1327C15.9762 29.2073 15.826 29.3053 15.7152 29.4267L14.6445 29.2509L14.9865 25.8759H18.7834V26.8667H15.9677L15.7791 28.6021H15.8175C15.9389 28.4594 16.1104 28.3411 16.332 28.2474C16.5536 28.1515 16.7965 28.1036 17.0607 28.1036C17.457 28.1036 17.8107 28.1973 18.1218 28.3848C18.4329 28.5702 18.6779 28.8259 18.8569 29.1519C19.0359 29.4778 19.1254 29.8507 19.1254 30.2705C19.1254 30.703 19.0252 31.0886 18.8249 31.4274C18.6268 31.7641 18.3508 32.0293 17.9972 32.2232C17.6456 32.415 17.2386 32.5109 16.7763 32.5109Z" fill="#FFFBFB"/>
<path d="M363.018 32.5109C362.543 32.5109 362.121 32.431 361.752 32.2712C361.386 32.1114 361.098 31.893 360.889 31.616C360.683 31.3369 360.58 31.0205 360.582 30.6668C360.58 30.3919 360.64 30.1394 360.761 29.9093C360.883 29.6792 361.047 29.4874 361.254 29.334C361.462 29.1785 361.695 29.0794 361.95 29.0368V28.9921C361.614 28.9175 361.341 28.746 361.132 28.4775C360.926 28.2069 360.823 27.8948 360.825 27.5411C360.823 27.2044 360.917 26.904 361.107 26.6398C361.296 26.3756 361.556 26.1678 361.886 26.0166C362.217 25.8631 362.594 25.7864 363.018 25.7864C363.438 25.7864 363.812 25.8631 364.14 26.0166C364.47 26.1678 364.73 26.3756 364.919 26.6398C365.111 26.904 365.207 27.2044 365.207 27.5411C365.207 27.8948 365.102 28.2069 364.891 28.4775C364.682 28.746 364.412 28.9175 364.082 28.9921V29.0368C364.338 29.0794 364.568 29.1785 364.772 29.334C364.979 29.4874 365.143 29.6792 365.265 29.9093C365.388 30.1394 365.45 30.3919 365.45 30.6668C365.45 31.0205 365.346 31.3369 365.137 31.616C364.928 31.893 364.64 32.1114 364.274 32.2712C363.91 32.431 363.491 32.5109 363.018 32.5109ZM363.018 31.5968C363.263 31.5968 363.476 31.5553 363.657 31.4722C363.838 31.3869 363.979 31.2676 364.079 31.1142C364.179 30.9608 364.23 30.784 364.232 30.5837C364.23 30.3749 364.176 30.1906 364.069 30.0308C363.965 29.8688 363.821 29.7421 363.638 29.6504C363.457 29.5588 363.25 29.513 363.018 29.513C362.783 29.513 362.575 29.5588 362.391 29.6504C362.208 29.7421 362.063 29.8688 361.957 30.0308C361.852 30.1906 361.801 30.3749 361.803 30.5837C361.801 30.784 361.85 30.9608 361.95 31.1142C362.051 31.2655 362.191 31.3837 362.372 31.469C362.555 31.5542 362.771 31.5968 363.018 31.5968ZM363.018 28.6149C363.218 28.6149 363.395 28.5744 363.548 28.4935C363.704 28.4125 363.826 28.2996 363.916 28.1547C364.005 28.0098 364.051 27.8426 364.053 27.6529C364.051 27.4654 364.006 27.3014 363.919 27.1607C363.832 27.018 363.71 26.9082 363.555 26.8315C363.399 26.7527 363.22 26.7133 363.018 26.7133C362.811 26.7133 362.629 26.7527 362.471 26.8315C362.316 26.9082 362.194 27.018 362.107 27.1607C362.022 27.3014 361.98 27.4654 361.982 27.6529C361.98 27.8426 362.023 28.0098 362.11 28.1547C362.2 28.2975 362.322 28.4104 362.478 28.4935C362.635 28.5744 362.815 28.6149 363.018 28.6149ZM368.776 32.5109C368.35 32.5109 367.969 32.431 367.632 32.2712C367.295 32.1092 367.028 31.8877 366.83 31.6064C366.634 31.3252 366.529 31.0034 366.517 30.6412H367.667C367.689 30.9097 367.805 31.1291 368.016 31.2996C368.227 31.4679 368.48 31.5521 368.776 31.5521C369.009 31.5521 369.215 31.4988 369.396 31.3923C369.577 31.2857 369.72 31.1377 369.825 30.948C369.929 30.7584 369.98 30.5421 369.978 30.2992C369.98 30.0521 369.928 29.8326 369.821 29.6408C369.715 29.4491 369.569 29.2989 369.384 29.1902C369.198 29.0794 368.985 29.024 368.744 29.024C368.548 29.0219 368.355 29.0581 368.166 29.1327C367.976 29.2073 367.826 29.3053 367.715 29.4267L366.645 29.2509L366.987 25.8759H370.783V26.8667H367.968L367.779 28.6021H367.817C367.939 28.4594 368.11 28.3411 368.332 28.2474C368.554 28.1515 368.797 28.1036 369.061 28.1036C369.457 28.1036 369.811 28.1973 370.122 28.3848C370.433 28.5702 370.678 28.8259 370.857 29.1519C371.036 29.4778 371.125 29.8507 371.125 30.2705C371.125 30.703 371.025 31.0886 370.825 31.4274C370.627 31.7641 370.351 32.0293 369.997 32.2232C369.646 32.415 369.239 32.5109 368.776 32.5109Z" fill="#FFFBFB"/>
<path d="M335.018 36.5109C334.543 36.5109 334.121 36.431 333.752 36.2712C333.386 36.1114 333.098 35.893 332.889 35.616C332.683 35.3369 332.58 35.0205 332.582 34.6668C332.58 34.3919 332.64 34.1394 332.761 33.9093C332.883 33.6792 333.047 33.4874 333.254 33.334C333.462 33.1785 333.695 33.0794 333.95 33.0368V32.9921C333.614 32.9175 333.341 32.746 333.132 32.4775C332.926 32.2069 332.823 31.8948 332.825 31.5411C332.823 31.2044 332.917 30.904 333.107 30.6398C333.296 30.3756 333.556 30.1678 333.886 30.0166C334.217 29.8631 334.594 29.7864 335.018 29.7864C335.438 29.7864 335.812 29.8631 336.14 30.0166C336.47 30.1678 336.73 30.3756 336.919 30.6398C337.111 30.904 337.207 31.2044 337.207 31.5411C337.207 31.8948 337.102 32.2069 336.891 32.4775C336.682 32.746 336.412 32.9175 336.082 32.9921V33.0368C336.338 33.0794 336.568 33.1785 336.772 33.334C336.979 33.4874 337.143 33.6792 337.265 33.9093C337.388 34.1394 337.45 34.3919 337.45 34.6668C337.45 35.0205 337.346 35.3369 337.137 35.616C336.928 35.893 336.64 36.1114 336.274 36.2712C335.91 36.431 335.491 36.5109 335.018 36.5109ZM335.018 35.5968C335.263 35.5968 335.476 35.5553 335.657 35.4722C335.838 35.3869 335.979 35.2676 336.079 35.1142C336.179 34.9608 336.23 34.784 336.232 34.5837C336.23 34.3749 336.176 34.1906 336.069 34.0308C335.965 33.8688 335.821 33.7421 335.638 33.6504C335.457 33.5588 335.25 33.513 335.018 33.513C334.783 33.513 334.575 33.5588 334.391 33.6504C334.208 33.7421 334.063 33.8688 333.957 34.0308C333.852 34.1906 333.801 34.3749 333.803 34.5837C333.801 34.784 333.85 34.9608 333.95 35.1142C334.051 35.2655 334.191 35.3837 334.372 35.469C334.555 35.5542 334.771 35.5968 335.018 35.5968ZM335.018 32.6149C335.218 32.6149 335.395 32.5744 335.548 32.4935C335.704 32.4125 335.826 32.2996 335.916 32.1547C336.005 32.0098 336.051 31.8426 336.053 31.6529C336.051 31.4654 336.006 31.3014 335.919 31.1607C335.832 31.018 335.71 30.9082 335.555 30.8315C335.399 30.7527 335.22 30.7133 335.018 30.7133C334.811 30.7133 334.629 30.7527 334.471 30.8315C334.316 30.9082 334.194 31.018 334.107 31.1607C334.022 31.3014 333.98 31.4654 333.982 31.6529C333.98 31.8426 334.023 32.0098 334.11 32.1547C334.2 32.2975 334.322 32.4104 334.478 32.4935C334.635 32.5744 334.815 32.6149 335.018 32.6149ZM340.776 36.5109C340.35 36.5109 339.969 36.431 339.632 36.2712C339.295 36.1092 339.028 35.8877 338.83 35.6064C338.634 35.3252 338.529 35.0034 338.517 34.6412H339.667C339.689 34.9097 339.805 35.1291 340.016 35.2996C340.227 35.4679 340.48 35.5521 340.776 35.5521C341.009 35.5521 341.215 35.4988 341.396 35.3923C341.577 35.2857 341.72 35.1377 341.825 34.948C341.929 34.7584 341.98 34.5421 341.978 34.2992C341.98 34.0521 341.928 33.8326 341.821 33.6408C341.715 33.4491 341.569 33.2989 341.384 33.1902C341.198 33.0794 340.985 33.024 340.744 33.024C340.548 33.0219 340.355 33.0581 340.166 33.1327C339.976 33.2073 339.826 33.3053 339.715 33.4267L338.645 33.2509L338.987 29.8759H342.783V30.8667H339.968L339.779 32.6021H339.817C339.939 32.4594 340.11 32.3411 340.332 32.2474C340.554 32.1515 340.797 32.1036 341.061 32.1036C341.457 32.1036 341.811 32.1973 342.122 32.3848C342.433 32.5702 342.678 32.8259 342.857 33.1519C343.036 33.4778 343.125 33.8507 343.125 34.2705C343.125 34.703 343.025 35.0886 342.825 35.4274C342.627 35.7641 342.351 36.0293 341.997 36.2232C341.646 36.415 341.239 36.5109 340.776 36.5109Z" fill="#FFFBFB"/>
<path d="M307.41 41.0136C306.935 41.0136 306.513 40.9337 306.144 40.7739C305.778 40.6141 305.49 40.3957 305.281 40.1187C305.075 39.8396 304.972 39.5231 304.975 39.1695C304.972 38.8946 305.032 38.6421 305.154 38.412C305.275 38.1819 305.439 37.9901 305.646 37.8367C305.855 37.6812 306.087 37.5821 306.342 37.5395V37.4947C306.006 37.4202 305.733 37.2486 305.524 36.9802C305.318 36.7096 305.215 36.3974 305.217 36.0437C305.215 35.7071 305.309 35.4067 305.499 35.1425C305.688 34.8783 305.948 34.6705 306.279 34.5192C306.609 34.3658 306.986 34.2891 307.41 34.2891C307.83 34.2891 308.204 34.3658 308.532 34.5192C308.862 34.6705 309.122 34.8783 309.312 35.1425C309.503 35.4067 309.599 35.7071 309.599 36.0437C309.599 36.3974 309.494 36.7096 309.283 36.9802C309.074 37.2486 308.804 37.4202 308.474 37.4947V37.5395C308.73 37.5821 308.96 37.6812 309.165 37.8367C309.371 37.9901 309.535 38.1819 309.657 38.412C309.78 38.6421 309.842 38.8946 309.842 39.1695C309.842 39.5231 309.738 39.8396 309.529 40.1187C309.32 40.3957 309.032 40.6141 308.666 40.7739C308.302 40.9337 307.883 41.0136 307.41 41.0136ZM307.41 40.0995C307.655 40.0995 307.868 40.058 308.049 39.9749C308.23 39.8896 308.371 39.7703 308.471 39.6169C308.571 39.4635 308.622 39.2866 308.624 39.0864C308.622 38.8776 308.568 38.6932 308.461 38.5334C308.357 38.3715 308.213 38.2447 308.03 38.1531C307.849 38.0615 307.642 38.0157 307.41 38.0157C307.176 38.0157 306.967 38.0615 306.784 38.1531C306.6 38.2447 306.455 38.3715 306.349 38.5334C306.244 38.6932 306.193 38.8776 306.195 39.0864C306.193 39.2866 306.242 39.4635 306.342 39.6169C306.443 39.7682 306.583 39.8864 306.764 39.9717C306.948 40.0569 307.163 40.0995 307.41 40.0995ZM307.41 37.1176C307.61 37.1176 307.787 37.0771 307.94 36.9962C308.096 36.9152 308.219 36.8023 308.308 36.6574C308.398 36.5125 308.443 36.3452 308.445 36.1556C308.443 35.9681 308.399 35.804 308.311 35.6634C308.224 35.5207 308.102 35.4109 307.947 35.3342C307.791 35.2554 307.612 35.216 307.41 35.216C307.203 35.216 307.021 35.2554 306.863 35.3342C306.708 35.4109 306.586 35.5207 306.499 35.6634C306.414 35.804 306.372 35.9681 306.374 36.1556C306.372 36.3452 306.415 36.5125 306.502 36.6574C306.592 36.8001 306.714 36.9131 306.87 36.9962C307.027 37.0771 307.208 37.1176 307.41 37.1176ZM313.168 41.0136C312.742 41.0136 312.361 40.9337 312.024 40.7739C311.688 40.6119 311.42 40.3903 311.222 40.1091C311.026 39.8278 310.922 39.5061 310.909 39.1439H312.059C312.081 39.4124 312.197 39.6318 312.408 39.8023C312.619 39.9706 312.872 40.0548 313.168 40.0548C313.401 40.0548 313.607 40.0015 313.788 39.895C313.97 39.7884 314.112 39.6403 314.217 39.4507C314.321 39.2611 314.372 39.0448 314.37 38.8019C314.372 38.5548 314.32 38.3353 314.213 38.1435C314.107 37.9518 313.961 37.8016 313.776 37.6929C313.59 37.5821 313.377 37.5267 313.136 37.5267C312.94 37.5246 312.748 37.5608 312.558 37.6354C312.368 37.7099 312.218 37.8079 312.107 37.9294L311.037 37.7536L311.379 34.3786H315.175V35.3694H312.36L312.171 37.1048H312.21C312.331 36.9621 312.503 36.8438 312.724 36.7501C312.946 36.6542 313.189 36.6062 313.453 36.6062C313.849 36.6062 314.203 36.7 314.514 36.8875C314.825 37.0729 315.07 37.3285 315.249 37.6545C315.428 37.9805 315.517 38.3534 315.517 38.7731C315.517 39.2057 315.417 39.5913 315.217 39.9301C315.019 40.2668 314.743 40.532 314.389 40.7259C314.038 40.9177 313.631 41.0136 313.168 41.0136Z" fill="#FFFBFB"/>
<path d="M281.334 47.8754C280.858 47.8754 280.436 47.7955 280.068 47.6357C279.701 47.4759 279.414 47.2575 279.205 46.9805C278.998 46.7014 278.896 46.385 278.898 46.0313C278.896 45.7564 278.956 45.5039 279.077 45.2738C279.199 45.0437 279.363 44.8519 279.569 44.6985C279.778 44.543 280.01 44.4439 280.266 44.4013V44.3566C279.929 44.282 279.657 44.1105 279.448 43.842C279.241 43.5714 279.139 43.2593 279.141 42.9056C279.139 42.5689 279.233 42.2685 279.422 42.0043C279.612 41.7401 279.872 41.5323 280.202 41.3811C280.532 41.2276 280.91 41.1509 281.334 41.1509C281.753 41.1509 282.127 41.2276 282.455 41.3811C282.786 41.5323 283.046 41.7401 283.235 42.0043C283.427 42.2685 283.523 42.5689 283.523 42.9056C283.523 43.2593 283.417 43.5714 283.206 43.842C282.998 44.1105 282.728 44.282 282.398 44.3566V44.4013C282.653 44.4439 282.884 44.543 283.088 44.6985C283.295 44.8519 283.459 45.0437 283.58 45.2738C283.704 45.5039 283.766 45.7564 283.766 46.0313C283.766 46.385 283.661 46.7014 283.452 46.9805C283.244 47.2575 282.956 47.4759 282.59 47.6357C282.225 47.7955 281.807 47.8754 281.334 47.8754ZM281.334 46.9613C281.579 46.9613 281.792 46.9198 281.973 46.8367C282.154 46.7514 282.294 46.6321 282.395 46.4787C282.495 46.3253 282.546 46.1485 282.548 45.9482C282.546 45.7394 282.492 45.5551 282.385 45.3953C282.281 45.2333 282.137 45.1066 281.954 45.0149C281.772 44.9233 281.566 44.8775 281.334 44.8775C281.099 44.8775 280.89 44.9233 280.707 45.0149C280.524 45.1066 280.379 45.2333 280.272 45.3953C280.168 45.5551 280.117 45.7394 280.119 45.9482C280.117 46.1485 280.166 46.3253 280.266 46.4787C280.366 46.63 280.507 46.7482 280.688 46.8335C280.871 46.9187 281.086 46.9613 281.334 46.9613ZM281.334 43.9794C281.534 43.9794 281.711 43.9389 281.864 43.858C282.02 43.777 282.142 43.6641 282.232 43.5192C282.321 43.3743 282.367 43.2071 282.369 43.0174C282.367 42.8299 282.322 42.6659 282.235 42.5252C282.147 42.3825 282.026 42.2727 281.87 42.196C281.715 42.1172 281.536 42.0778 281.334 42.0778C281.127 42.0778 280.945 42.1172 280.787 42.196C280.631 42.2727 280.51 42.3825 280.423 42.5252C280.337 42.6659 280.296 42.8299 280.298 43.0174C280.296 43.2071 280.338 43.3743 280.426 43.5192C280.515 43.662 280.638 43.7749 280.793 43.858C280.951 43.9389 281.131 43.9794 281.334 43.9794ZM287.236 47.9105C286.709 47.9105 286.258 47.7774 285.881 47.511C285.506 47.2426 285.217 46.8558 285.015 46.3509C284.814 45.8438 284.714 45.2333 284.714 44.5196C284.716 43.8058 284.817 43.1985 285.018 42.6978C285.22 42.195 285.509 41.8115 285.884 41.5473C286.261 41.283 286.712 41.1509 287.236 41.1509C287.76 41.1509 288.211 41.283 288.588 41.5473C288.965 41.8115 289.254 42.195 289.454 42.6978C289.656 43.2007 289.757 43.8079 289.757 44.5196C289.757 45.2355 289.656 45.847 289.454 46.3541C289.254 46.859 288.965 47.2447 288.588 47.511C288.213 47.7774 287.762 47.9105 287.236 47.9105ZM287.236 46.9102C287.645 46.9102 287.968 46.7088 288.204 46.3061C288.443 45.9013 288.562 45.3058 288.562 44.5196C288.562 43.9997 288.508 43.5629 288.399 43.2092C288.29 42.8555 288.137 42.5892 287.939 42.4102C287.741 42.2291 287.506 42.1385 287.236 42.1385C286.829 42.1385 286.507 42.3409 286.271 42.7458C286.034 43.1485 285.915 43.7397 285.913 44.5196C285.91 45.0416 285.963 45.4805 286.069 45.8363C286.178 46.1921 286.331 46.4606 286.529 46.6417C286.728 46.8207 286.963 46.9102 287.236 46.9102Z" fill="#FFFBFB"/>
<path d="M254.705 53.2622C254.392 53.26 254.086 53.2057 253.788 53.0992C253.49 52.9905 253.221 52.8147 252.983 52.5718C252.744 52.3268 252.554 52.0019 252.414 51.597C252.273 51.1901 252.204 50.6862 252.206 50.0853C252.206 49.5249 252.266 49.0253 252.385 48.5864C252.504 48.1475 252.676 47.7767 252.9 47.4742C253.123 47.1695 253.393 46.9372 253.708 46.7774C254.026 46.6176 254.38 46.5377 254.772 46.5377C255.184 46.5377 255.548 46.6187 255.865 46.7806C256.185 46.9426 256.443 47.1641 256.639 47.4454C256.835 47.7245 256.956 48.0399 257.003 48.3914H255.837C255.777 48.14 255.655 47.9397 255.469 47.7906C255.286 47.6393 255.054 47.5636 254.772 47.5636C254.319 47.5636 253.969 47.7607 253.724 48.1549C253.481 48.5491 253.359 49.0903 253.357 49.7785H253.401C253.506 49.591 253.641 49.4301 253.807 49.2959C253.973 49.1617 254.161 49.0583 254.37 48.9859C254.581 48.9113 254.803 48.874 255.038 48.874C255.421 48.874 255.765 48.9656 256.07 49.1489C256.377 49.3321 256.62 49.5846 256.799 49.9063C256.978 50.2259 257.066 50.5924 257.064 51.0058C257.066 51.4362 256.968 51.8229 256.77 52.1659C256.572 52.5068 256.296 52.7753 255.942 52.9713C255.589 53.1673 255.176 53.2643 254.705 53.2622ZM254.699 52.3034C254.931 52.3034 255.139 52.2469 255.322 52.134C255.505 52.021 255.65 51.8687 255.757 51.6769C255.863 51.4852 255.916 51.27 255.913 51.0313C255.916 50.797 255.864 50.585 255.76 50.3953C255.658 50.2057 255.516 50.0555 255.335 49.9447C255.154 49.8339 254.947 49.7785 254.715 49.7785C254.542 49.7785 254.381 49.8115 254.232 49.8776C254.083 49.9436 253.953 50.0352 253.842 50.1524C253.732 50.2675 253.644 50.4017 253.58 50.5551C253.519 50.7064 253.487 50.8683 253.484 51.0409C253.487 51.2689 253.54 51.4788 253.644 51.6705C253.749 51.8623 253.892 52.0157 254.076 52.1308C254.259 52.2458 254.467 52.3034 254.699 52.3034ZM260.564 53.2973C260.037 53.2973 259.586 53.1641 259.209 52.8978C258.834 52.6293 258.545 52.2426 258.342 51.7377C258.142 51.2306 258.042 50.6201 258.042 49.9063C258.044 49.1926 258.145 48.5853 258.346 48.0846C258.548 47.5818 258.837 47.1982 259.212 46.934C259.589 46.6698 260.04 46.5377 260.564 46.5377C261.088 46.5377 261.538 46.6698 261.916 46.934C262.293 47.1982 262.581 47.5818 262.782 48.0846C262.984 48.5874 263.085 49.1947 263.085 49.9063C263.085 50.6222 262.984 51.2337 262.782 51.7409C262.581 52.2458 262.293 52.6315 261.916 52.8978C261.541 53.1641 261.09 53.2973 260.564 53.2973ZM260.564 52.297C260.973 52.297 261.296 52.0956 261.532 51.6929C261.771 51.2881 261.89 50.6926 261.89 49.9063C261.89 49.3864 261.836 48.9497 261.727 48.596C261.618 48.2423 261.465 47.9759 261.267 47.797C261.069 47.6159 260.834 47.5253 260.564 47.5253C260.157 47.5253 259.835 47.7277 259.598 48.1325C259.362 48.5352 259.243 49.1265 259.24 49.9063C259.238 50.4284 259.291 50.8673 259.397 51.2231C259.506 51.5789 259.659 51.8474 259.857 52.0285C260.055 52.2075 260.291 52.297 260.564 52.297Z" fill="#FFFBFB"/>
<path d="M226.302 57.7473L229.086 52.2373V52.1926H225.855V51.2018H230.313V52.2149L227.533 57.7473H226.302ZM233.54 57.8367C233.064 57.8367 232.643 57.7568 232.274 57.597C231.907 57.4372 231.62 57.2188 231.411 56.9419C231.204 56.6627 231.102 56.3463 231.104 55.9926C231.102 55.7178 231.162 55.4653 231.283 55.2352C231.405 55.0051 231.569 54.8133 231.775 54.6599C231.984 54.5044 232.216 54.4053 232.472 54.3627V54.3179C232.135 54.2433 231.863 54.0718 231.654 53.8034C231.447 53.5328 231.345 53.2206 231.347 52.8669C231.345 52.5303 231.439 52.2299 231.628 51.9656C231.818 51.7014 232.078 51.4937 232.408 51.3424C232.738 51.189 233.116 51.1123 233.54 51.1123C233.959 51.1123 234.333 51.189 234.661 51.3424C234.992 51.4937 235.252 51.7014 235.441 51.9656C235.633 52.2299 235.729 52.5303 235.729 52.8669C235.729 53.2206 235.623 53.5328 235.412 53.8034C235.204 54.0718 234.934 54.2433 234.604 54.3179V54.3627C234.86 54.4053 235.09 54.5044 235.294 54.6599C235.501 54.8133 235.665 55.0051 235.786 55.2352C235.91 55.4653 235.972 55.7178 235.972 55.9926C235.972 56.3463 235.867 56.6627 235.659 56.9419C235.45 57.2188 235.162 57.4372 234.796 57.597C234.431 57.7568 234.013 57.8367 233.54 57.8367ZM233.54 56.9227C233.785 56.9227 233.998 56.8811 234.179 56.798C234.36 56.7128 234.501 56.5935 234.601 56.4401C234.701 56.2867 234.752 56.1098 234.754 55.9095C234.752 55.7007 234.698 55.5164 234.591 55.3566C234.487 55.1947 234.343 55.0679 234.16 54.9763C233.978 54.8847 233.772 54.8389 233.54 54.8389C233.305 54.8389 233.096 54.8847 232.913 54.9763C232.73 55.0679 232.585 55.1947 232.478 55.3566C232.374 55.5164 232.323 55.7007 232.325 55.9095C232.323 56.1098 232.372 56.2867 232.472 56.4401C232.572 56.5914 232.713 56.7096 232.894 56.7948C233.077 56.8801 233.292 56.9227 233.54 56.9227ZM233.54 53.9408C233.74 53.9408 233.917 53.9003 234.07 53.8193C234.226 53.7384 234.348 53.6254 234.438 53.4806C234.527 53.3357 234.573 53.1684 234.575 52.9788C234.573 52.7913 234.528 52.6272 234.441 52.4866C234.353 52.3438 234.232 52.2341 234.077 52.1574C233.921 52.0786 233.742 52.0392 233.54 52.0392C233.333 52.0392 233.151 52.0786 232.993 52.1574C232.838 52.2341 232.716 52.3438 232.629 52.4866C232.543 52.6272 232.502 52.7913 232.504 52.9788C232.502 53.1684 232.545 53.3357 232.632 53.4806C232.721 53.6233 232.844 53.7362 232.999 53.8193C233.157 53.9003 233.337 53.9408 233.54 53.9408Z" fill="#FFFBFB"/>
</svg>
