<svg width="31" height="31" viewBox="0 0 31 31" fill="none" xmlns="http://www.w3.org/2000/svg">
<path d="M21.834 25.167V24.542C21.834 22.4709 20.1551 20.792 18.084 20.792H13.084C11.0129 20.792 9.33398 22.4709 9.33398 24.542V25.167M19.334 13.292C19.334 15.3631 17.6551 17.042 15.584 17.042C13.5129 17.042 11.834 15.3631 11.834 13.292C11.834 11.2209 13.5129 9.54199 15.584 9.54199C17.6551 9.54199 19.334 11.2209 19.334 13.292ZM26.834 15.792C26.834 22.0052 21.7972 27.042 15.584 27.042C9.37078 27.042 4.33398 22.0052 4.33398 15.792C4.33398 9.57879 9.37078 4.54199 15.584 4.54199C21.7972 4.54199 26.834 9.57879 26.834 15.792Z" stroke="#9E9E9E" stroke-width="2" stroke-linecap="round" stroke-linejoin="round"/>
</svg>
