<svg width="24" height="24" viewBox="0 0 24 24" fill="none" xmlns="http://www.w3.org/2000/svg">
<path d="M8.63871 15.1952V15.8753C8.63871 17.2677 9.19184 18.6031 10.1764 19.5876C11.161 20.5722 12.4963 21.1253 13.8887 21.1253C15.2811 21.1253 16.6165 20.5722 17.601 19.5876C18.5856 18.6031 19.1387 17.2677 19.1387 15.8753V13.927C18.36 13.6518 17.7036 13.1101 17.2856 12.3977C16.8676 11.6853 16.715 10.8481 16.8546 10.0341C16.9942 9.22002 17.4171 8.48153 18.0486 7.94914C18.6801 7.41676 19.4794 7.12476 20.3054 7.12476C21.1313 7.12476 21.9307 7.41676 22.5621 7.94914C23.1936 8.48153 23.6165 9.22002 23.7562 10.0341C23.8958 10.8481 23.7431 11.6853 23.3251 12.3977C22.9072 13.1101 22.2508 13.6518 21.472 13.927V15.8753C21.472 17.8866 20.6731 19.8154 19.2509 21.2376C17.8288 22.6597 15.8999 23.4587 13.8887 23.4587C11.8775 23.4587 9.94864 22.6597 8.52649 21.2376C7.10433 19.8154 6.30538 17.8866 6.30538 15.8753V15.1952C4.67429 14.919 3.19366 14.0742 2.12591 12.8107C1.05816 11.5471 0.472258 9.94629 0.472046 8.29199L0.472046 2.45866C0.472046 1.83982 0.717879 1.24633 1.15546 0.808746C1.59305 0.371161 2.18654 0.125328 2.80538 0.125328L3.97205 0.125328C4.28147 0.125328 4.57821 0.248244 4.797 0.467037C5.0158 0.685829 5.13871 0.982575 5.13871 1.29199C5.13871 1.60141 5.0158 1.89816 4.797 2.11695C4.57821 2.33575 4.28147 2.45866 3.97205 2.45866H2.80538V8.29199C2.80538 9.52967 3.29704 10.7167 4.17221 11.5918C5.04738 12.467 6.23437 12.9587 7.47205 12.9587C8.70972 12.9587 9.89671 12.467 10.7719 11.5918C11.647 10.7167 12.1387 9.52967 12.1387 8.29199V2.45866H10.972C10.6626 2.45866 10.3659 2.33575 10.1471 2.11695C9.9283 1.89816 9.80538 1.60141 9.80538 1.29199C9.80538 0.982575 9.9283 0.685829 10.1471 0.467037C10.3659 0.248244 10.6626 0.125328 10.972 0.125328L12.1387 0.125328C12.7576 0.125328 13.351 0.371161 13.7886 0.808746C14.2262 1.24633 14.472 1.83982 14.472 2.45866V8.29199C14.4718 9.94629 13.8859 11.5471 12.8182 12.8107C11.7504 14.0742 10.2698 14.919 8.63871 15.1952ZM20.3054 11.792C20.6148 11.792 20.9115 11.6691 21.1303 11.4503C21.3491 11.2315 21.472 10.9347 21.472 10.6253C21.472 10.3159 21.3491 10.0192 21.1303 9.80037C20.9115 9.58158 20.6148 9.45866 20.3054 9.45866C19.996 9.45866 19.6992 9.58158 19.4804 9.80037C19.2616 10.0192 19.1387 10.3159 19.1387 10.6253C19.1387 10.9347 19.2616 11.2315 19.4804 11.4503C19.6992 11.6691 19.996 11.792 20.3054 11.792Z" fill="#9E9E9E"/>
</svg>
