<svg width="23" height="28" viewBox="0 0 23 28" fill="none" xmlns="http://www.w3.org/2000/svg">
<path fill-rule="evenodd" clip-rule="evenodd" d="M0.861328 3.54199L11.8613 0.0419922L22.8613 3.54199V15.5442C22.8613 18.0283 21.1966 21.177 19.1449 22.5759L11.8613 27.542L4.57776 22.5759C2.52523 21.1765 0.861328 18.027 0.861328 15.5442V3.54199Z" fill="#9E9E9E"/>
<path fill-rule="evenodd" clip-rule="evenodd" d="M3.36133 5.77836L11.8613 3.04199L20.3613 5.77836V14.1756C20.3613 16.6624 18.7023 19.8228 16.6578 21.2332L11.8613 24.542L7.06483 21.2332C5.01944 19.8222 3.36133 16.6627 3.36133 14.1756V5.77836Z" fill="#EFF6F8"/>
<path fill-rule="evenodd" clip-rule="evenodd" d="M10.022 7.54199C8.72023 7.54199 7.86133 9.03704 7.86133 10.8813C7.86133 12.7255 8.72023 18.542 10.022 18.542C10.7815 18.542 10.8677 13.7118 11.8881 13.7074C13.1049 13.7118 12.9948 18.542 13.7542 18.542C15.056 18.542 15.9149 12.7255 15.9149 10.8813C15.9149 9.03704 15.056 7.54199 13.7542 7.54199C13.1322 7.54199 12.5101 8.13128 11.8881 8.13128C11.2661 8.13128 10.6441 7.54199 10.022 7.54199Z" fill="#9E9E9E"/>
</svg>
