<svg width="28" height="43" viewBox="0 0 28 43" fill="none" xmlns="http://www.w3.org/2000/svg">
<path fill-rule="evenodd" clip-rule="evenodd" d="M3.04955 1.42236C4.77368 -0.128283 7.16569 -0.215008 9.72246 0.791001C14.6153 2.71283 13.2266 2.89321 18.1901 0.825692C21.3795 -0.502934 24.3011 -0.131752 25.9546 2.24798C27.4816 4.44039 27.3257 7.20171 27.0756 9.86243C26.7255 13.602 25.6927 17.1959 23.9892 20.6475C24.9837 27.7867 24.5394 33.4377 23.7921 37.5138C22.7299 43.307 20.5586 45.326 19.3935 37.5728C19.2729 36.7784 19.214 35.9424 19.1934 35.7065C18.7315 30.1908 18.3284 24.6924 13.8151 24.7132C9.63714 25.7955 9.40176 29.3825 9.07812 35.0369C9.05753 35.3977 8.98397 36.6743 8.85746 37.5763C7.77767 45.2809 5.47098 43.4631 4.49123 37.5763C3.89984 34.0136 3.57326 28.2446 3.82335 20.599C2.44934 16.9045 1.39014 13.1927 1.01354 9.35943C0.701669 6.1957 0.669305 3.56273 3.04955 1.42236Z" fill="#A0A0A5"/>
</svg>
