<svg width="379" height="71" viewBox="0 0 379 71" fill="none" xmlns="http://www.w3.org/2000/svg">
<path fill-rule="evenodd" clip-rule="evenodd" d="M165.037 1.35803C166.761 -0.192614 169.153 -0.279339 171.71 0.72667C176.603 2.64849 175.214 2.82888 180.178 0.76136C183.367 -0.567266 186.289 -0.196083 187.942 2.18365C189.469 4.37606 189.313 7.13738 189.063 9.7981C188.713 13.5377 187.68 17.1316 185.977 20.5832C186.971 27.7224 186.527 33.3734 185.78 37.4495C184.717 43.2427 182.546 45.2617 181.381 37.5084C181.26 36.7141 181.202 35.878 181.181 35.6421C180.719 30.1264 180.316 24.6281 175.803 24.6489C171.625 25.7312 171.389 29.3181 171.066 34.9726C171.045 35.3334 170.972 36.61 170.845 37.5119C169.765 45.2166 167.459 43.3988 166.479 37.5119C165.887 33.9493 165.561 28.1803 165.811 20.5346C164.437 16.8402 163.378 13.1283 163.001 9.29509C162.689 6.13137 162.657 3.4984 165.037 1.35803Z" fill="#A0A0A5"/>
<path fill-rule="evenodd" clip-rule="evenodd" d="M138.305 4.34051C140.029 2.78987 142.421 2.70314 144.977 3.70915C149.87 5.63098 148.482 5.81137 153.445 3.74384C156.634 2.41522 159.556 2.7864 161.21 5.16613C162.737 7.35854 162.581 10.1199 162.331 12.7806C161.98 16.5202 160.948 20.114 159.244 23.5657C160.239 30.7049 159.794 36.3559 159.047 40.432C157.985 46.2252 155.814 48.2441 154.648 40.4909C154.528 39.6965 154.469 38.8605 154.448 38.6246C153.986 33.1089 153.583 27.6105 149.07 27.6314C144.892 28.7137 144.657 32.3006 144.333 37.9551C144.313 38.3159 144.239 39.5925 144.112 40.4944C143.033 48.199 140.726 46.3813 139.746 40.4944C139.155 36.9317 138.828 31.1628 139.078 23.5171C137.704 19.8226 136.645 16.1108 136.269 12.2776C135.957 9.11385 135.924 6.48088 138.305 4.34051Z" fill="#A0A0A5"/>
<path fill-rule="evenodd" clip-rule="evenodd" d="M111.934 8.17987C113.658 6.62922 116.05 6.5425 118.607 7.54851C123.5 9.47033 122.111 9.65072 127.074 7.5832C130.264 6.25457 133.185 6.62576 134.839 9.00549C136.366 11.1979 136.21 13.9592 135.96 16.6199C135.61 20.3595 134.577 23.9534 132.873 27.4051C133.868 34.5442 133.424 40.1952 132.676 44.2713C131.614 50.0645 129.443 52.0835 128.278 44.3303C128.157 43.5359 128.098 42.6999 128.078 42.464C127.616 36.9483 127.213 31.4499 122.699 31.4707C118.521 32.553 118.286 36.14 117.962 41.7945C117.942 42.1552 117.868 43.4318 117.742 44.3338C116.662 52.0384 114.355 50.2206 113.376 44.3338C112.784 40.7711 112.458 35.0022 112.708 27.3565C111.334 23.662 110.274 19.9502 109.898 16.1169C109.586 12.9532 109.554 10.3202 111.934 8.17987Z" fill="#E07B00"/>
<path fill-rule="evenodd" clip-rule="evenodd" d="M84.4791 13.4224C86.2032 11.8717 88.5953 11.785 91.152 12.791C96.0449 14.7128 94.6562 14.8932 99.6197 12.8257C102.809 11.4971 105.731 11.8682 107.384 14.248C108.911 16.4404 108.755 19.2017 108.505 21.8624C108.155 25.602 107.122 29.1959 105.419 32.6475C106.413 39.7867 105.969 45.4377 105.222 49.5138C104.16 55.307 101.988 57.326 100.823 49.5728C100.702 48.7784 100.644 47.9424 100.623 47.7065C100.161 42.1908 99.758 36.6924 95.2446 36.7132C91.0667 37.7955 90.8313 41.3825 90.5077 47.0369C90.4871 47.3977 90.4135 48.6743 90.287 49.5763C89.2072 57.2809 86.9005 55.4631 85.9208 49.5763C85.3294 46.0136 85.0028 40.2446 85.2529 32.599C83.8789 28.9045 82.8197 25.1927 82.4431 21.3594C82.1312 18.1957 82.0989 15.5627 84.4791 13.4224Z" fill="#A0A0A5"/>
<path fill-rule="evenodd" clip-rule="evenodd" d="M57.0243 19.5635C58.7484 18.0129 61.1404 17.9262 63.6972 18.9322C68.5901 20.854 67.2014 21.0344 72.1649 18.9669C75.3542 17.6382 78.2758 18.0094 79.9293 20.3892C81.4563 22.5816 81.3004 25.3429 81.0503 28.0036C80.7002 31.7432 79.6675 35.3371 77.9639 38.7887C78.9584 45.9279 78.5141 51.5789 77.7668 55.655C76.7047 61.4482 74.5333 63.4672 73.3682 55.714C73.2476 54.9196 73.1887 54.0835 73.1681 53.8476C72.7062 48.3319 72.3031 42.8336 67.7898 42.8544C63.6119 43.9367 63.3765 47.5237 63.0529 53.1781C63.0323 53.5389 62.9587 54.8155 62.8322 55.7174C61.7524 63.4221 59.4457 61.6043 58.466 55.7174C57.8746 52.1548 57.548 46.3858 57.7981 38.7402C56.4241 35.0457 55.3649 31.3338 54.9883 27.5006C54.6764 24.3369 54.644 21.7039 57.0243 19.5635Z" fill="#A0A0A5"/>
<path fill-rule="evenodd" clip-rule="evenodd" d="M29.6048 24.4932C31.329 22.9425 33.721 22.8558 36.2778 23.8618C41.1706 25.7836 39.7819 25.964 44.7454 23.8965C47.9348 22.5679 50.8564 22.939 52.5099 25.3188C54.0369 27.5112 53.881 30.2725 53.6309 32.9332C53.2808 36.6728 52.248 40.2667 50.5445 43.7183C51.539 50.8575 51.0947 56.5085 50.3474 60.5846C49.2852 66.3778 47.1139 68.3968 45.9488 60.6436C45.8282 59.8492 45.7693 59.0132 45.7487 58.7773C45.2868 53.2616 44.8837 47.7632 40.3704 47.784C36.1924 48.8663 35.9571 52.4533 35.6334 58.1077C35.6128 58.4685 35.5393 59.7451 35.4128 60.6471C34.333 68.3517 32.0263 66.5339 31.0465 60.6471C30.4551 57.0844 30.1286 51.3154 30.3786 43.6698C29.0046 39.9753 27.9454 36.2635 27.5688 32.4302C27.257 29.2665 27.2246 26.6335 29.6048 24.4932Z" fill="#A0A0A5"/>
<path fill-rule="evenodd" clip-rule="evenodd" d="M2.18553 29.6343C3.90966 28.0837 6.30168 27.9969 8.85845 29.0029C13.7513 30.9248 12.3626 31.1052 17.3261 29.0376C20.5155 27.709 23.4371 28.0802 25.0906 30.4599C26.6176 32.6523 26.4617 35.4137 26.2116 38.0744C25.8614 41.814 24.8287 45.4078 23.1252 48.8595C24.1197 55.9987 23.6754 61.6497 22.9281 65.7258C21.8659 71.519 19.6946 73.5379 18.5295 65.7847C18.4088 64.9903 18.35 64.1543 18.3294 63.9184C17.8675 58.4027 17.4644 52.9043 12.9511 52.9252C8.77313 54.0075 8.53775 57.5944 8.21411 63.2489C8.19351 63.6097 8.11996 64.8863 7.99344 65.7882C6.91365 73.4928 4.60697 71.6751 3.62721 65.7882C3.03583 62.2255 2.70925 56.4566 2.95933 48.8109C1.58532 45.1164 0.526131 41.4046 0.149529 37.5714C-0.162345 34.4076 -0.194709 31.7747 2.18553 29.6343Z" fill="#A0A0A5"/>
<path fill-rule="evenodd" clip-rule="evenodd" d="M354.814 29.6343C356.538 28.0837 358.93 27.9969 361.487 29.0029C366.38 30.9248 364.991 31.1052 369.955 29.0376C373.144 27.709 376.065 28.0802 377.719 30.4599C379.246 32.6523 379.09 35.4137 378.84 38.0744C378.49 41.814 377.457 45.4078 375.754 48.8595C376.748 55.9987 376.304 61.6497 375.556 65.7258C374.494 71.519 372.323 73.5379 371.158 65.7847C371.037 64.9903 370.978 64.1543 370.958 63.9184C370.496 58.4027 370.093 52.9043 365.579 52.9252C361.402 54.0075 361.166 57.5944 360.843 63.2489C360.822 63.6097 360.748 64.8863 360.622 65.7882C359.542 73.4928 357.235 71.6751 356.256 65.7882C355.664 62.2255 355.338 56.4566 355.588 48.8109C354.214 45.1164 353.155 41.4046 352.778 37.5714C352.466 34.4076 352.434 31.7747 354.814 29.6343Z" fill="#A0A0A5"/>
<path fill-rule="evenodd" clip-rule="evenodd" d="M326.934 24.4932C328.658 22.9425 331.05 22.8558 333.607 23.8618C338.5 25.7836 337.111 25.964 342.075 23.8965C345.264 22.5679 348.186 22.939 349.839 25.3188C351.366 27.5112 351.21 30.2725 350.96 32.9332C350.61 36.6728 349.578 40.2667 347.874 43.7183C348.868 50.8575 348.424 56.5085 347.677 60.5846C346.615 66.3778 344.443 68.3968 343.278 60.6436C343.158 59.8492 343.099 59.0132 343.078 58.7773C342.616 53.2616 342.213 47.7632 337.7 47.784C333.522 48.8663 333.287 52.4533 332.963 58.1077C332.942 58.4685 332.869 59.7451 332.742 60.6471C331.662 68.3517 329.356 66.5339 328.376 60.6471C327.785 57.0844 327.458 51.3154 327.708 43.6698C326.334 39.9753 325.275 36.2635 324.898 32.4302C324.586 29.2665 324.554 26.6335 326.934 24.4932Z" fill="#A0A0A5"/>
<path fill-rule="evenodd" clip-rule="evenodd" d="M299.42 19.5635C301.144 18.0129 303.536 17.9262 306.093 18.9322C310.986 20.854 309.597 21.0344 314.561 18.9669C317.75 17.6382 320.672 18.0094 322.325 20.3892C323.852 22.5816 323.696 25.3429 323.446 28.0036C323.096 31.7432 322.063 35.3371 320.36 38.7887C321.354 45.9279 320.91 51.5789 320.163 55.655C319.101 61.4482 316.929 63.4672 315.764 55.714C315.644 54.9196 315.585 54.0835 315.564 53.8476C315.102 48.3319 314.699 42.8336 310.186 42.8544C306.008 43.9367 305.772 47.5237 305.449 53.1781C305.428 53.5389 305.355 54.8155 305.228 55.7174C304.148 63.4221 301.842 61.6043 300.862 55.7174C300.271 52.1548 299.944 46.3858 300.194 38.7402C298.82 35.0457 297.761 31.3338 297.384 27.5006C297.072 24.3369 297.04 21.7039 299.42 19.5635Z" fill="#A0A0A5"/>
<path fill-rule="evenodd" clip-rule="evenodd" d="M273.05 13.4224C274.774 11.8717 277.166 11.785 279.722 12.791C284.615 14.7128 283.227 14.8932 288.19 12.8257C291.379 11.4971 294.301 11.8682 295.955 14.248C297.482 16.4404 297.326 19.2017 297.076 21.8624C296.725 25.602 295.693 29.1959 293.989 32.6475C294.984 39.7867 294.539 45.4377 293.792 49.5138C292.73 55.307 290.559 57.326 289.393 49.5728C289.273 48.7784 289.214 47.9424 289.193 47.7065C288.731 42.1908 288.328 36.6924 283.815 36.7132C279.637 37.7955 279.402 41.3825 279.078 47.0369C279.058 47.3977 278.984 48.6743 278.857 49.5763C277.778 57.2809 275.471 55.4631 274.491 49.5763C273.9 46.0136 273.573 40.2446 273.823 32.599C272.449 28.9045 271.39 25.1927 271.014 21.3594C270.702 18.1957 270.669 15.5627 273.05 13.4224Z" fill="#A0A0A5"/>
<path fill-rule="evenodd" clip-rule="evenodd" d="M246.317 8.17987C248.042 6.62922 250.434 6.5425 252.99 7.54851C257.883 9.47033 256.495 9.65072 261.458 7.5832C264.647 6.25457 267.569 6.62576 269.223 9.00549C270.75 11.1979 270.594 13.9592 270.344 16.6199C269.993 20.3595 268.961 23.9534 267.257 27.4051C268.252 34.5442 267.807 40.1952 267.06 44.2713C265.998 50.0645 263.827 52.0835 262.661 44.3303C262.541 43.5359 262.482 42.6999 262.461 42.464C261.999 36.9483 261.596 31.4499 257.083 31.4707C252.905 32.553 252.67 36.14 252.346 41.7945C252.325 42.1552 252.252 43.4318 252.125 44.3338C251.046 52.0384 248.739 50.2206 247.759 44.3338C247.168 40.7711 246.841 35.0022 247.091 27.3565C245.717 23.662 244.658 19.9502 244.281 16.1169C243.97 12.9532 243.937 10.3202 246.317 8.17987Z" fill="#E07B00"/>
<path fill-rule="evenodd" clip-rule="evenodd" d="M219.946 4.34051C221.671 2.78987 224.063 2.70314 226.619 3.70915C231.512 5.63098 230.123 5.81137 235.087 3.74384C238.276 2.41522 241.198 2.7864 242.851 5.16613C244.378 7.35854 244.223 10.1199 243.972 12.7806C243.622 16.5202 242.59 20.114 240.886 23.5657C241.881 30.7049 241.436 36.3559 240.689 40.432C239.627 46.2252 237.455 48.2441 236.29 40.4909C236.17 39.6965 236.111 38.8605 236.09 38.6246C235.628 33.1089 235.225 27.6105 230.712 27.6314C226.534 28.7137 226.299 32.3006 225.975 37.9551C225.954 38.3159 225.881 39.5925 225.754 40.4944C224.675 48.199 222.368 46.3813 221.388 40.4944C220.797 36.9317 220.47 31.1628 220.72 23.5171C219.346 19.8226 218.287 16.1108 217.91 12.2776C217.599 9.11385 217.566 6.48088 219.946 4.34051Z" fill="#A0A0A5"/>
<path fill-rule="evenodd" clip-rule="evenodd" d="M192.492 1.35803C194.216 -0.192614 196.608 -0.279339 199.164 0.72667C204.057 2.64849 202.669 2.82888 207.632 0.76136C210.821 -0.567266 213.743 -0.196083 215.397 2.18365C216.924 4.37606 216.768 7.13738 216.518 9.7981C216.167 13.5377 215.135 17.1316 213.431 20.5832C214.426 27.7224 213.981 33.3734 213.234 37.4495C212.172 43.2427 210.001 45.2617 208.836 37.5084C208.715 36.7141 208.656 35.878 208.635 35.6421C208.174 30.1264 207.77 24.6281 203.257 24.6489C199.079 25.7312 198.844 29.3181 198.52 34.9726C198.5 35.3334 198.426 36.61 198.299 37.5119C197.22 45.2166 194.913 43.3988 193.933 37.5119C193.342 33.9493 193.015 28.1803 193.265 20.5346C191.891 16.8402 190.832 13.1283 190.456 9.29509C190.144 6.13137 190.111 3.4984 192.492 1.35803Z" fill="#A0A0A5"/>
<path d="M173.068 15.189C172.593 15.189 172.171 15.1091 171.803 14.9493C171.436 14.7895 171.148 14.5711 170.94 14.2941C170.733 14.015 170.631 13.6986 170.633 13.3449C170.631 13.07 170.69 12.8175 170.812 12.5874C170.933 12.3573 171.097 12.1655 171.304 12.0121C171.513 11.8566 171.745 11.7575 172.001 11.7149V11.6702C171.664 11.5956 171.391 11.4241 171.182 11.1556C170.976 10.885 170.874 10.5729 170.876 10.2192C170.874 9.88251 170.967 9.58209 171.157 9.31788C171.347 9.05368 171.606 8.84594 171.937 8.69466C172.267 8.54125 172.644 8.46454 173.068 8.46454C173.488 8.46454 173.862 8.54125 174.19 8.69466C174.52 8.84594 174.78 9.05368 174.97 9.31788C175.162 9.58209 175.257 9.88251 175.257 10.2192C175.257 10.5729 175.152 10.885 174.941 11.1556C174.732 11.4241 174.463 11.5956 174.132 11.6702V11.7149C174.388 11.7575 174.618 11.8566 174.823 12.0121C175.029 12.1655 175.193 12.3573 175.315 12.5874C175.439 12.8175 175.5 13.07 175.5 13.3449C175.5 13.6986 175.396 14.015 175.187 14.2941C174.978 14.5711 174.691 14.7895 174.324 14.9493C173.96 15.1091 173.541 15.189 173.068 15.189ZM173.068 14.2749C173.313 14.2749 173.526 14.2334 173.707 14.1503C173.888 14.065 174.029 13.9457 174.129 13.7923C174.229 13.6389 174.28 13.4621 174.283 13.2618C174.28 13.053 174.226 12.8687 174.12 12.7089C174.015 12.5469 173.871 12.4202 173.688 12.3285C173.507 12.2369 173.3 12.1911 173.068 12.1911C172.834 12.1911 172.625 12.2369 172.442 12.3285C172.258 12.4202 172.114 12.5469 172.007 12.7089C171.903 12.8687 171.852 13.053 171.854 13.2618C171.852 13.4621 171.901 13.6389 172.001 13.7923C172.101 13.9436 172.241 14.0618 172.423 14.1471C172.606 14.2323 172.821 14.2749 173.068 14.2749ZM173.068 11.293C173.268 11.293 173.445 11.2525 173.599 11.1716C173.754 11.0906 173.877 10.9777 173.966 10.8328C174.056 10.6879 174.102 10.5207 174.104 10.331C174.102 10.1435 174.057 9.97946 173.969 9.83883C173.882 9.69608 173.761 9.58635 173.605 9.50964C173.45 9.43081 173.271 9.39139 173.068 9.39139C172.861 9.39139 172.679 9.43081 172.522 9.50964C172.366 9.58635 172.245 9.69608 172.157 9.83883C172.072 9.97946 172.03 10.1435 172.033 10.331C172.03 10.5207 172.073 10.6879 172.16 10.8328C172.25 10.9756 172.372 11.0885 172.528 11.1716C172.686 11.2525 172.866 11.293 173.068 11.293ZM178.97 15.2241C178.444 15.2241 177.992 15.091 177.615 14.8246C177.24 14.5562 176.952 14.1694 176.749 13.6645C176.549 13.1574 176.449 12.5469 176.449 11.8332C176.451 11.1194 176.552 10.5121 176.752 10.0114C176.955 9.50858 177.243 9.12506 177.618 8.86085C177.996 8.59665 178.446 8.46454 178.97 8.46454C179.495 8.46454 179.945 8.59665 180.322 8.86085C180.699 9.12506 180.988 9.50858 181.188 10.0114C181.391 10.5143 181.492 11.1215 181.492 11.8332C181.492 12.5491 181.391 13.1606 181.188 13.6677C180.988 14.1726 180.699 14.5583 180.322 14.8246C179.947 15.091 179.497 15.2241 178.97 15.2241ZM178.97 14.2238C179.379 14.2238 179.702 14.0224 179.939 13.6197C180.177 13.2149 180.297 12.6194 180.297 11.8332C180.297 11.3133 180.242 10.8765 180.134 10.5228C180.025 10.1691 179.872 9.90275 179.674 9.72378C179.475 9.54267 179.241 9.45211 178.97 9.45211C178.563 9.45211 178.242 9.65453 178.005 10.0594C177.769 10.4621 177.649 11.0533 177.647 11.8332C177.645 12.3552 177.697 12.7941 177.804 13.1499C177.913 13.5057 178.066 13.7742 178.264 13.9553C178.462 14.1343 178.698 14.2238 178.97 14.2238Z" fill="#FFFBFB"/>
<path d="M200.669 15.189C200.194 15.189 199.772 15.1091 199.404 14.9493C199.037 14.7895 198.75 14.5711 198.541 14.2941C198.334 14.015 198.232 13.6986 198.234 13.3449C198.232 13.07 198.292 12.8175 198.413 12.5874C198.535 12.3573 198.699 12.1655 198.905 12.0121C199.114 11.8566 199.346 11.7575 199.602 11.7149V11.6702C199.265 11.5956 198.993 11.4241 198.784 11.1556C198.577 10.885 198.475 10.5729 198.477 10.2192C198.475 9.88251 198.569 9.58209 198.758 9.31788C198.948 9.05368 199.208 8.84594 199.538 8.69466C199.868 8.54125 200.245 8.46454 200.669 8.46454C201.089 8.46454 201.463 8.54125 201.791 8.69466C202.122 8.84594 202.381 9.05368 202.571 9.31788C202.763 9.58209 202.859 9.88251 202.859 10.2192C202.859 10.5729 202.753 10.885 202.542 11.1556C202.334 11.4241 202.064 11.5956 201.734 11.6702V11.7149C201.989 11.7575 202.22 11.8566 202.424 12.0121C202.631 12.1655 202.795 12.3573 202.916 12.5874C203.04 12.8175 203.102 13.07 203.102 13.3449C203.102 13.6986 202.997 14.015 202.788 14.2941C202.58 14.5711 202.292 14.7895 201.925 14.9493C201.561 15.1091 201.142 15.189 200.669 15.189ZM200.669 14.2749C200.914 14.2749 201.128 14.2334 201.309 14.1503C201.49 14.065 201.63 13.9457 201.731 13.7923C201.831 13.6389 201.882 13.4621 201.884 13.2618C201.882 13.053 201.827 12.8687 201.721 12.7089C201.617 12.5469 201.473 12.4202 201.289 12.3285C201.108 12.2369 200.902 12.1911 200.669 12.1911C200.435 12.1911 200.226 12.2369 200.043 12.3285C199.86 12.4202 199.715 12.5469 199.608 12.7089C199.504 12.8687 199.453 13.053 199.455 13.2618C199.453 13.4621 199.502 13.6389 199.602 13.7923C199.702 13.9436 199.843 14.0618 200.024 14.1471C200.207 14.2323 200.422 14.2749 200.669 14.2749ZM200.669 11.293C200.87 11.293 201.047 11.2525 201.2 11.1716C201.356 11.0906 201.478 10.9777 201.568 10.8328C201.657 10.6879 201.703 10.5207 201.705 10.331C201.703 10.1435 201.658 9.97946 201.571 9.83883C201.483 9.69608 201.362 9.58635 201.206 9.50964C201.051 9.43081 200.872 9.39139 200.669 9.39139C200.463 9.39139 200.281 9.43081 200.123 9.50964C199.967 9.58635 199.846 9.69608 199.759 9.83883C199.673 9.97946 199.632 10.1435 199.634 10.331C199.632 10.5207 199.674 10.6879 199.762 10.8328C199.851 10.9756 199.974 11.0885 200.129 11.1716C200.287 11.2525 200.467 11.293 200.669 11.293ZM206.428 15.189C206.002 15.189 205.62 15.1091 205.284 14.9493C204.947 14.7873 204.68 14.5658 204.482 14.2845C204.285 14.0033 204.181 13.6815 204.168 13.3193H205.319C205.34 13.5878 205.456 13.8072 205.667 13.9777C205.878 14.146 206.132 14.2302 206.428 14.2302C206.66 14.2302 206.867 14.1769 207.048 14.0704C207.229 13.9638 207.372 13.8158 207.476 13.6261C207.581 13.4365 207.632 13.2202 207.63 12.9773C207.632 12.7302 207.58 12.5107 207.473 12.3189C207.366 12.1272 207.221 11.977 207.035 11.8683C206.85 11.7575 206.637 11.7021 206.396 11.7021C206.2 11.7 206.007 11.7362 205.817 11.8108C205.628 11.8854 205.478 11.9834 205.367 12.1048L204.296 11.929L204.638 8.55403H208.435V9.5448H205.619L205.431 11.2802H205.469C205.591 11.1375 205.762 11.0192 205.984 10.9255C206.205 10.8296 206.448 10.7817 206.712 10.7817C207.109 10.7817 207.462 10.8754 207.773 11.0629C208.084 11.2483 208.33 11.504 208.508 11.83C208.687 12.156 208.777 12.5288 208.777 12.9486C208.777 13.3811 208.677 13.7667 208.477 14.1055C208.278 14.4422 208.002 14.7074 207.649 14.9013C207.297 15.0931 206.89 15.189 206.428 15.189Z" fill="#FFFBFB"/>
<path d="M144.722 18.6741L147.506 13.1641V13.1194H144.275V12.1286H148.733V13.1418L145.952 18.6741H144.722ZM151.959 18.7636C151.484 18.7636 151.062 18.6837 150.694 18.5239C150.327 18.3641 150.04 18.1457 149.831 17.8687C149.624 17.5896 149.522 17.2731 149.524 16.9195C149.522 16.6446 149.582 16.3921 149.703 16.162C149.824 15.9319 149.988 15.7401 150.195 15.5867C150.404 15.4312 150.636 15.3321 150.892 15.2895V15.2447C150.555 15.1702 150.283 14.9986 150.074 14.7302C149.867 14.4596 149.765 14.1474 149.767 13.7937C149.765 13.4571 149.859 13.1567 150.048 12.8925C150.238 12.6283 150.498 12.4205 150.828 12.2692C151.158 12.1158 151.535 12.0391 151.959 12.0391C152.379 12.0391 152.753 12.1158 153.081 12.2692C153.411 12.4205 153.671 12.6283 153.861 12.8925C154.053 13.1567 154.149 13.4571 154.149 13.7937C154.149 14.1474 154.043 14.4596 153.832 14.7302C153.623 14.9986 153.354 15.1702 153.024 15.2447V15.2895C153.279 15.3321 153.509 15.4312 153.714 15.5867C153.921 15.7401 154.085 15.9319 154.206 16.162C154.33 16.3921 154.392 16.6446 154.392 16.9195C154.392 17.2731 154.287 17.5896 154.078 17.8687C153.87 18.1457 153.582 18.3641 153.215 18.5239C152.851 18.6837 152.432 18.7636 151.959 18.7636ZM151.959 17.8495C152.204 17.8495 152.417 17.808 152.599 17.7249C152.78 17.6396 152.92 17.5203 153.02 17.3669C153.121 17.2135 153.172 17.0366 153.174 16.8364C153.172 16.6276 153.117 16.4432 153.011 16.2834C152.906 16.1215 152.763 15.9947 152.579 15.9031C152.398 15.8115 152.192 15.7657 151.959 15.7657C151.725 15.7657 151.516 15.8115 151.333 15.9031C151.15 15.9947 151.005 16.1215 150.898 16.2834C150.794 16.4432 150.743 16.6276 150.745 16.8364C150.743 17.0366 150.792 17.2135 150.892 17.3669C150.992 17.5182 151.133 17.6364 151.314 17.7217C151.497 17.8069 151.712 17.8495 151.959 17.8495ZM151.959 14.8676C152.16 14.8676 152.337 14.8271 152.49 14.7462C152.645 14.6652 152.768 14.5523 152.857 14.4074C152.947 14.2625 152.993 14.0952 152.995 13.9056C152.993 13.7181 152.948 13.554 152.861 13.4134C152.773 13.2707 152.652 13.1609 152.496 13.0842C152.341 13.0054 152.162 12.966 151.959 12.966C151.753 12.966 151.571 13.0054 151.413 13.0842C151.257 13.1609 151.136 13.2707 151.049 13.4134C150.963 13.554 150.922 13.7181 150.924 13.9056C150.922 14.0952 150.964 14.2625 151.052 14.4074C151.141 14.5501 151.264 14.6631 151.419 14.7462C151.577 14.8271 151.757 14.8676 151.959 14.8676Z" fill="#FFFBFB"/>
<path d="M119.755 23.3382C119.442 23.336 119.136 23.2817 118.838 23.1752C118.539 23.0665 118.271 22.8907 118.032 22.6478C117.793 22.4028 117.604 22.0779 117.463 21.673C117.323 21.2661 117.253 20.7622 117.255 20.1613C117.255 19.601 117.315 19.1013 117.434 18.6624C117.554 18.2235 117.725 17.8527 117.949 17.5502C118.173 17.2455 118.442 17.0132 118.758 16.8534C119.075 16.6936 119.43 16.6137 119.822 16.6137C120.233 16.6137 120.597 16.6947 120.915 16.8566C121.235 17.0186 121.492 17.2402 121.688 17.5214C121.884 17.8005 122.006 18.1159 122.053 18.4674H120.886C120.827 18.216 120.704 18.0157 120.519 17.8666C120.335 17.7153 120.103 17.6397 119.822 17.6397C119.368 17.6397 119.019 17.8368 118.774 18.2309C118.531 18.6251 118.408 19.1663 118.406 19.8545H118.451C118.555 19.667 118.691 19.5061 118.857 19.3719C119.023 19.2377 119.21 19.1343 119.419 19.0619C119.63 18.9873 119.853 18.95 120.087 18.95C120.471 18.95 120.815 19.0417 121.119 19.2249C121.426 19.4081 121.669 19.6606 121.848 19.9824C122.027 20.302 122.116 20.6684 122.113 21.0818C122.116 21.5122 122.018 21.8989 121.819 22.2419C121.621 22.5828 121.345 22.8513 120.992 23.0473C120.638 23.2434 120.226 23.3403 119.755 23.3382ZM119.748 22.3794C119.981 22.3794 120.188 22.3229 120.372 22.21C120.555 22.0971 120.7 21.9447 120.806 21.7529C120.913 21.5612 120.965 21.346 120.963 21.1074C120.965 20.873 120.914 20.661 120.809 20.4713C120.707 20.2817 120.566 20.1315 120.384 20.0207C120.203 19.9099 119.997 19.8545 119.764 19.8545C119.592 19.8545 119.431 19.8875 119.282 19.9536C119.133 20.0196 119.003 20.1113 118.892 20.2284C118.781 20.3435 118.694 20.4777 118.63 20.6311C118.568 20.7824 118.536 20.9444 118.534 21.1169C118.536 21.3449 118.589 21.5548 118.694 21.7466C118.798 21.9383 118.942 22.0917 119.125 22.2068C119.308 22.3218 119.516 22.3794 119.748 22.3794ZM125.613 23.3733C125.087 23.3733 124.635 23.2402 124.258 22.9738C123.883 22.7054 123.594 22.3186 123.392 21.8137C123.192 21.3066 123.091 20.6961 123.091 19.9824C123.094 19.2686 123.195 18.6613 123.395 18.1606C123.597 17.6578 123.886 17.2743 124.261 17.0101C124.638 16.7458 125.089 16.6137 125.613 16.6137C126.137 16.6137 126.588 16.7458 126.965 17.0101C127.342 17.2743 127.631 17.6578 127.831 18.1606C128.034 18.6635 128.135 19.2707 128.135 19.9824C128.135 20.6983 128.034 21.3098 127.831 21.8169C127.631 22.3218 127.342 22.7075 126.965 22.9738C126.59 23.2402 126.139 23.3733 125.613 23.3733ZM125.613 22.373C126.022 22.373 126.345 22.1716 126.581 21.7689C126.82 21.3641 126.939 20.7686 126.939 19.9824C126.939 19.4625 126.885 19.0257 126.776 18.672C126.668 18.3183 126.514 18.052 126.316 17.873C126.118 17.6919 125.884 17.6013 125.613 17.6013C125.206 17.6013 124.884 17.8037 124.648 18.2086C124.411 18.6113 124.292 19.2025 124.29 19.9824C124.288 20.5044 124.34 20.9433 124.447 21.2991C124.555 21.6549 124.709 21.9234 124.907 22.1045C125.105 22.2835 125.34 22.373 125.613 22.373Z" fill="#FFFBFB"/>
<path d="M93.0123 28.7249C92.5372 28.7249 92.1153 28.645 91.7467 28.4852C91.3802 28.3254 91.0926 28.107 90.8838 27.83C90.6771 27.5509 90.5748 27.2345 90.577 26.8808C90.5748 26.606 90.6345 26.3535 90.756 26.1234C90.8774 25.8932 91.0415 25.7015 91.2481 25.5481C91.457 25.3925 91.6892 25.2935 91.9449 25.2508V25.2061C91.6082 25.1315 91.3355 24.96 91.1267 24.6915C90.92 24.4209 90.8177 24.1088 90.8199 23.7551C90.8177 23.4185 90.9115 23.118 91.1011 22.8538C91.2908 22.5896 91.5507 22.3819 91.881 22.2306C92.2112 22.0772 92.5883 22.0005 93.0123 22.0005C93.4321 22.0005 93.806 22.0772 94.1342 22.2306C94.4644 22.3819 94.7244 22.5896 94.914 22.8538C95.1057 23.118 95.2016 23.4185 95.2016 23.7551C95.2016 24.1088 95.0962 24.4209 94.8852 24.6915C94.6764 24.96 94.4069 25.1315 94.0766 25.2061V25.2508C94.3323 25.2935 94.5624 25.3925 94.767 25.5481C94.9736 25.7015 95.1377 25.8932 95.2592 26.1234C95.3827 26.3535 95.4445 26.606 95.4445 26.8808C95.4445 27.2345 95.3401 27.5509 95.1313 27.83C94.9225 28.107 94.6349 28.3254 94.2684 28.4852C93.904 28.645 93.4854 28.7249 93.0123 28.7249ZM93.0123 27.8109C93.2574 27.8109 93.4704 27.7693 93.6516 27.6862C93.8327 27.601 93.9733 27.4817 94.0734 27.3283C94.1736 27.1749 94.2247 26.998 94.2268 26.7977C94.2247 26.5889 94.1704 26.4046 94.0638 26.2448C93.9594 26.0829 93.8156 25.9561 93.6324 25.8645C93.4513 25.7729 93.2446 25.7271 93.0123 25.7271C92.778 25.7271 92.5692 25.7729 92.3859 25.8645C92.2027 25.9561 92.0578 26.0829 91.9513 26.2448C91.8469 26.4046 91.7957 26.5889 91.7979 26.7977C91.7957 26.998 91.8447 27.1749 91.9449 27.3283C92.045 27.4795 92.1856 27.5978 92.3668 27.683C92.55 27.7682 92.7652 27.8109 93.0123 27.8109ZM93.0123 24.829C93.2126 24.829 93.3895 24.7885 93.5429 24.7075C93.6984 24.6266 93.8209 24.5136 93.9104 24.3687C93.9999 24.2239 94.0457 24.0566 94.0479 23.867C94.0457 23.6795 94.001 23.5154 93.9136 23.3748C93.8263 23.232 93.7048 23.1223 93.5493 23.0456C93.3937 22.9668 93.2148 22.9273 93.0123 22.9273C92.8057 22.9273 92.6235 22.9668 92.4658 23.0456C92.3103 23.1223 92.1888 23.232 92.1015 23.3748C92.0163 23.5154 91.9747 23.6795 91.9768 23.867C91.9747 24.0566 92.0173 24.2239 92.1047 24.3687C92.1942 24.5115 92.3167 24.6244 92.4722 24.7075C92.6299 24.7885 92.8099 24.829 93.0123 24.829ZM98.9146 28.7601C98.3883 28.7601 97.9366 28.6269 97.5595 28.3606C97.1845 28.0921 96.8958 27.7054 96.6934 27.2004C96.4931 26.6933 96.3929 26.0829 96.3929 25.3691C96.3951 24.6553 96.4963 24.0481 96.6966 23.5474C96.899 23.0445 97.1877 22.661 97.5627 22.3968C97.9398 22.1326 98.3905 22.0005 98.9146 22.0005C99.4388 22.0005 99.8894 22.1326 100.267 22.3968C100.644 22.661 100.932 23.0445 101.133 23.5474C101.335 24.0502 101.436 24.6575 101.436 25.3691C101.436 26.085 101.335 26.6965 101.133 27.2036C100.932 27.7086 100.644 28.0942 100.267 28.3606C99.8915 28.6269 99.4409 28.7601 98.9146 28.7601ZM98.9146 27.7597C99.3237 27.7597 99.6465 27.5584 99.883 27.1557C100.122 26.7508 100.241 26.1553 100.241 25.3691C100.241 24.8492 100.187 24.4124 100.078 24.0587C99.9693 23.705 99.8159 23.4387 99.6177 23.2597C99.4196 23.0786 99.1852 22.9881 98.9146 22.9881C98.5076 22.9881 98.1859 23.1905 97.9494 23.5953C97.7129 23.998 97.5936 24.5893 97.5915 25.3691C97.5893 25.8911 97.6415 26.33 97.7481 26.6859C97.8567 27.0417 98.0101 27.3102 98.2083 27.4913C98.4064 27.6702 98.6419 27.7597 98.9146 27.7597Z" fill="#FFFBFB"/>
<path d="M64.9562 35.0815C64.4811 35.0815 64.0592 35.0016 63.6906 34.8418C63.3241 34.682 63.0365 34.4636 62.8276 34.1866C62.621 33.9075 62.5187 33.5911 62.5208 33.2374C62.5187 32.9625 62.5784 32.71 62.6998 32.4799C62.8213 32.2498 62.9853 32.0581 63.192 31.9046C63.4008 31.7491 63.633 31.65 63.8887 31.6074V31.5627C63.5521 31.4881 63.2793 31.3166 63.0705 31.0481C62.8639 30.7775 62.7616 30.4654 62.7637 30.1117C62.7616 29.775 62.8553 29.4746 63.045 29.2104C63.2346 28.9462 63.4945 28.7385 63.8248 28.5872C64.1551 28.4338 64.5322 28.3571 64.9562 28.3571C65.3759 28.3571 65.7499 28.4338 66.078 28.5872C66.4083 28.7385 66.6682 28.9462 66.8578 29.2104C67.0496 29.4746 67.1455 29.775 67.1455 30.1117C67.1455 30.4654 67.04 30.7775 66.8291 31.0481C66.6203 31.3166 66.3507 31.4881 66.0205 31.5627V31.6074C66.2762 31.65 66.5063 31.7491 66.7108 31.9046C66.9175 32.0581 67.0816 32.2498 67.203 32.4799C67.3266 32.71 67.3884 32.9625 67.3884 33.2374C67.3884 33.5911 67.284 33.9075 67.0752 34.1866C66.8664 34.4636 66.5787 34.682 66.2122 34.8418C65.8479 35.0016 65.4292 35.0815 64.9562 35.0815ZM64.9562 34.1674C65.2012 34.1674 65.4143 34.1259 65.5954 34.0428C65.7765 33.9576 65.9171 33.8382 66.0173 33.6848C66.1174 33.5314 66.1686 33.3546 66.1707 33.1543C66.1686 32.9455 66.1142 32.7612 66.0077 32.6014C65.9033 32.4394 65.7595 32.3127 65.5762 32.2211C65.3951 32.1294 65.1884 32.0836 64.9562 32.0836C64.7218 32.0836 64.513 32.1294 64.3298 32.2211C64.1465 32.3127 64.0017 32.4394 63.8951 32.6014C63.7907 32.7612 63.7396 32.9455 63.7417 33.1543C63.7396 33.3546 63.7886 33.5314 63.8887 33.6848C63.9889 33.8361 64.1295 33.9544 64.3106 34.0396C64.4938 34.1248 64.709 34.1674 64.9562 34.1674ZM64.9562 31.1855C65.1565 31.1855 65.3333 31.1451 65.4867 31.0641C65.6423 30.9831 65.7648 30.8702 65.8543 30.7253C65.9438 30.5804 65.9896 30.4132 65.9917 30.2235C65.9896 30.036 65.9448 29.872 65.8575 29.7314C65.7701 29.5886 65.6487 29.4789 65.4931 29.4022C65.3376 29.3233 65.1586 29.2839 64.9562 29.2839C64.7495 29.2839 64.5673 29.3233 64.4097 29.4022C64.2541 29.4789 64.1327 29.5886 64.0453 29.7314C63.9601 29.872 63.9186 30.036 63.9207 30.2235C63.9186 30.4132 63.9612 30.5804 64.0485 30.7253C64.138 30.8681 64.2605 30.981 64.4161 31.0641C64.5737 31.1451 64.7538 31.1855 64.9562 31.1855ZM70.7146 35.0815C70.2885 35.0815 69.9071 35.0016 69.5705 34.8418C69.2338 34.6799 68.9664 34.4583 68.7683 34.177C68.5722 33.8958 68.4678 33.574 68.455 33.2118H69.6056C69.6269 33.4803 69.743 33.6997 69.954 33.8702C70.1649 34.0385 70.4185 34.1227 70.7146 34.1227C70.9469 34.1227 71.1536 34.0694 71.3347 33.9629C71.5158 33.8564 71.6585 33.7083 71.7629 33.5186C71.8673 33.329 71.9185 33.1127 71.9163 32.8698C71.9185 32.6227 71.8663 32.4032 71.7597 32.2115C71.6532 32.0197 71.5072 31.8695 71.3219 31.7608C71.1365 31.65 70.9234 31.5946 70.6827 31.5946C70.4866 31.5925 70.2938 31.6287 70.1042 31.7033C69.9146 31.7779 69.7643 31.8759 69.6536 31.9973L68.5829 31.8215L68.9249 28.4465H72.7217V29.4373H69.906L69.7175 31.1728H69.7558C69.8773 31.03 70.0488 30.9117 70.2704 30.818C70.492 30.7221 70.7349 30.6742 70.9991 30.6742C71.3954 30.6742 71.7491 30.7679 72.0602 30.9554C72.3712 31.1408 72.6163 31.3965 72.7952 31.7225C72.9742 32.0485 73.0637 32.4213 73.0637 32.8411C73.0637 33.2736 72.9636 33.6593 72.7633 33.998C72.5651 34.3347 72.2892 34.6 71.9355 34.7939C71.5839 34.9856 71.177 35.0815 70.7146 35.0815Z" fill="#FFFBFB"/>
<path d="M38.018 40.0895C37.5428 40.0895 37.1209 40.0096 36.7523 39.8498C36.3859 39.69 36.0982 39.4716 35.8894 39.1946C35.6827 38.9155 35.5805 38.5991 35.5826 38.2454C35.5805 37.9705 35.6401 37.718 35.7616 37.4879C35.883 37.2578 36.0471 37.0661 36.2538 36.9126C36.4626 36.7571 36.6948 36.658 36.9505 36.6154V36.5707C36.6138 36.4961 36.3411 36.3246 36.1323 36.0561C35.9256 35.7855 35.8234 35.4734 35.8255 35.1197C35.8234 34.783 35.9171 34.4826 36.1067 34.2184C36.2964 33.9542 36.5563 33.7464 36.8866 33.5952C37.2168 33.4418 37.594 33.3651 38.018 33.3651C38.4377 33.3651 38.8116 33.4418 39.1398 33.5952C39.47 33.7464 39.73 33.9542 39.9196 34.2184C40.1114 34.4826 40.2072 34.783 40.2072 35.1197C40.2072 35.4734 40.1018 35.7855 39.8908 36.0561C39.682 36.3246 39.4125 36.4961 39.0822 36.5707V36.6154C39.3379 36.658 39.568 36.7571 39.7726 36.9126C39.9793 37.0661 40.1433 37.2578 40.2648 37.4879C40.3883 37.718 40.4501 37.9705 40.4501 38.2454C40.4501 38.5991 40.3457 38.9155 40.1369 39.1946C39.9281 39.4716 39.6405 39.69 39.274 39.8498C38.9097 40.0096 38.491 40.0895 38.018 40.0895ZM38.018 39.1754C38.263 39.1754 38.4761 39.1339 38.6572 39.0508C38.8383 38.9656 38.9789 38.8462 39.079 38.6928C39.1792 38.5394 39.2303 38.3626 39.2325 38.1623C39.2303 37.9535 39.176 37.7692 39.0695 37.6094C38.9651 37.4474 38.8212 37.3207 38.638 37.229C38.4569 37.1374 38.2502 37.0916 38.018 37.0916C37.7836 37.0916 37.5748 37.1374 37.3915 37.229C37.2083 37.3207 37.0634 37.4474 36.9569 37.6094C36.8525 37.7692 36.8013 37.9535 36.8035 38.1623C36.8013 38.3626 36.8504 38.5394 36.9505 38.6928C37.0506 38.8441 37.1913 38.9624 37.3724 39.0476C37.5556 39.1328 37.7708 39.1754 38.018 39.1754ZM38.018 36.1935C38.2182 36.1935 38.3951 36.1531 38.5485 36.0721C38.704 35.9911 38.8266 35.8782 38.916 35.7333C39.0055 35.5884 39.0513 35.4212 39.0535 35.2315C39.0513 35.044 39.0066 34.88 38.9192 34.7393C38.8319 34.5966 38.7104 34.4869 38.5549 34.4102C38.3994 34.3313 38.2204 34.2919 38.018 34.2919C37.8113 34.2919 37.6291 34.3313 37.4714 34.4102C37.3159 34.4869 37.1945 34.5966 37.1071 34.7393C37.0219 34.88 36.9803 35.044 36.9825 35.2315C36.9803 35.4212 37.0229 35.5884 37.1103 35.7333C37.1998 35.8761 37.3223 35.989 37.4778 36.0721C37.6355 36.1531 37.8155 36.1935 38.018 36.1935ZM43.7764 40.0895C43.3503 40.0895 42.9689 40.0096 42.6322 39.8498C42.2956 39.6879 42.0282 39.4663 41.83 39.185C41.634 38.9038 41.5296 38.582 41.5168 38.2198H42.6674C42.6887 38.4883 42.8048 38.7077 43.0157 38.8782C43.2267 39.0465 43.4802 39.1307 43.7764 39.1307C44.0086 39.1307 44.2153 39.0774 44.3964 38.9709C44.5775 38.8643 44.7203 38.7163 44.8247 38.5266C44.9291 38.337 44.9802 38.1207 44.9781 37.8778C44.9802 37.6307 44.928 37.4112 44.8215 37.2195C44.715 37.0277 44.569 36.8775 44.3836 36.7688C44.1983 36.658 43.9852 36.6026 43.7444 36.6026C43.5484 36.6005 43.3556 36.6367 43.166 36.7113C42.9763 36.7859 42.8261 36.8839 42.7153 37.0053L41.6447 36.8295L41.9866 33.4545H45.7835V34.4453H42.9678L42.7792 36.1808H42.8176C42.939 36.038 43.1106 35.9197 43.3322 35.826C43.5537 35.7301 43.7966 35.6822 44.0608 35.6822C44.4572 35.6822 44.8108 35.7759 45.1219 35.9634C45.433 36.1488 45.678 36.4045 45.857 36.7305C46.036 37.0565 46.1255 37.4293 46.1255 37.8491C46.1255 38.2816 46.0253 38.6673 45.825 39.006C45.6269 39.3427 45.351 39.608 44.9973 39.8018C44.6457 39.9936 44.2388 40.0895 43.7764 40.0895Z" fill="#FFFBFB"/>
<path d="M11.018 44.0895C10.5428 44.0895 10.1209 44.0096 9.75234 43.8498C9.38586 43.69 9.09822 43.4716 8.88941 43.1946C8.68274 42.9155 8.58046 42.5991 8.58259 42.2454C8.58046 41.9705 8.64012 41.718 8.76157 41.4879C8.88302 41.2578 9.04708 41.0661 9.25376 40.9126C9.46257 40.7571 9.69481 40.658 9.95049 40.6154V40.5707C9.61384 40.4961 9.34112 40.3246 9.13231 40.0561C8.92563 39.7855 8.82336 39.4734 8.82549 39.1197C8.82336 38.783 8.91711 38.4826 9.10674 38.2184C9.29637 37.9542 9.55632 37.7464 9.88657 37.5952C10.2168 37.4418 10.594 37.3651 11.018 37.3651C11.4377 37.3651 11.8116 37.4418 12.1398 37.5952C12.47 37.7464 12.73 37.9542 12.9196 38.2184C13.1114 38.4826 13.2072 38.783 13.2072 39.1197C13.2072 39.4734 13.1018 39.7855 12.8908 40.0561C12.682 40.3246 12.4125 40.4961 12.0822 40.5707V40.6154C12.3379 40.658 12.568 40.7571 12.7726 40.9126C12.9793 41.0661 13.1433 41.2578 13.2648 41.4879C13.3883 41.718 13.4501 41.9705 13.4501 42.2454C13.4501 42.5991 13.3457 42.9155 13.1369 43.1946C12.9281 43.4716 12.6405 43.69 12.274 43.8498C11.9097 44.0096 11.491 44.0895 11.018 44.0895ZM11.018 43.1754C11.263 43.1754 11.4761 43.1339 11.6572 43.0508C11.8383 42.9656 11.9789 42.8462 12.079 42.6928C12.1792 42.5394 12.2303 42.3626 12.2325 42.1623C12.2303 41.9535 12.176 41.7692 12.0695 41.6094C11.9651 41.4474 11.8212 41.3207 11.638 41.229C11.4569 41.1374 11.2502 41.0916 11.018 41.0916C10.7836 41.0916 10.5748 41.1374 10.3915 41.229C10.2083 41.3207 10.0634 41.4474 9.95688 41.6094C9.85248 41.7692 9.80134 41.9535 9.80348 42.1623C9.80134 42.3626 9.85035 42.5394 9.95049 42.6928C10.0506 42.8441 10.1913 42.9624 10.3724 43.0476C10.5556 43.1328 10.7708 43.1754 11.018 43.1754ZM11.018 40.1935C11.2182 40.1935 11.3951 40.1531 11.5485 40.0721C11.704 39.9911 11.8266 39.8782 11.916 39.7333C12.0055 39.5884 12.0513 39.4212 12.0535 39.2315C12.0513 39.044 12.0066 38.88 11.9192 38.7393C11.8319 38.5966 11.7104 38.4869 11.5549 38.4102C11.3994 38.3313 11.2204 38.2919 11.018 38.2919C10.8113 38.2919 10.6291 38.3313 10.4714 38.4102C10.3159 38.4869 10.1945 38.5966 10.1071 38.7393C10.0219 38.88 9.98032 39.044 9.98245 39.2315C9.98032 39.4212 10.0229 39.5884 10.1103 39.7333C10.1998 39.8761 10.3223 39.989 10.4778 40.0721C10.6355 40.1531 10.8155 40.1935 11.018 40.1935ZM16.7764 44.0895C16.3503 44.0895 15.9689 44.0096 15.6322 43.8498C15.2956 43.6879 15.0282 43.4663 14.83 43.185C14.634 42.9038 14.5296 42.582 14.5168 42.2198H15.6674C15.6887 42.4883 15.8048 42.7077 16.0157 42.8782C16.2267 43.0465 16.4802 43.1307 16.7764 43.1307C17.0086 43.1307 17.2153 43.0774 17.3964 42.9709C17.5775 42.8643 17.7203 42.7163 17.8247 42.5266C17.9291 42.337 17.9802 42.1207 17.9781 41.8778C17.9802 41.6307 17.928 41.4112 17.8215 41.2195C17.715 41.0277 17.569 40.8775 17.3836 40.7688C17.1983 40.658 16.9852 40.6026 16.7444 40.6026C16.5484 40.6005 16.3556 40.6367 16.166 40.7113C15.9763 40.7859 15.8261 40.8839 15.7153 41.0053L14.6447 40.8295L14.9866 37.4545H18.7835V38.4453H15.9678L15.7792 40.1808H15.8176C15.939 40.038 16.1106 39.9197 16.3322 39.826C16.5537 39.7301 16.7966 39.6822 17.0608 39.6822C17.4572 39.6822 17.8108 39.7759 18.1219 39.9634C18.433 40.1488 18.678 40.4045 18.857 40.7305C19.036 41.0565 19.1255 41.4293 19.1255 41.8491C19.1255 42.2816 19.0253 42.6673 18.825 43.006C18.6269 43.3427 18.351 43.608 17.9973 43.8018C17.6457 43.9936 17.2388 44.0895 16.7764 44.0895Z" fill="#FFFBFB"/>
<path d="M363.018 44.0895C362.543 44.0895 362.121 44.0096 361.752 43.8498C361.386 43.69 361.098 43.4716 360.889 43.1946C360.683 42.9155 360.58 42.5991 360.583 42.2454C360.58 41.9705 360.64 41.718 360.762 41.4879C360.883 41.2578 361.047 41.0661 361.254 40.9126C361.463 40.7571 361.695 40.658 361.95 40.6154V40.5707C361.614 40.4961 361.341 40.3246 361.132 40.0561C360.926 39.7855 360.823 39.4734 360.825 39.1197C360.823 38.783 360.917 38.4826 361.107 38.2184C361.296 37.9542 361.556 37.7464 361.887 37.5952C362.217 37.4418 362.594 37.3651 363.018 37.3651C363.438 37.3651 363.812 37.4418 364.14 37.5952C364.47 37.7464 364.73 37.9542 364.92 38.2184C365.111 38.4826 365.207 38.783 365.207 39.1197C365.207 39.4734 365.102 39.7855 364.891 40.0561C364.682 40.3246 364.412 40.4961 364.082 40.5707V40.6154C364.338 40.658 364.568 40.7571 364.773 40.9126C364.979 41.0661 365.143 41.2578 365.265 41.4879C365.388 41.718 365.45 41.9705 365.45 42.2454C365.45 42.5991 365.346 42.9155 365.137 43.1946C364.928 43.4716 364.64 43.69 364.274 43.8498C363.91 44.0096 363.491 44.0895 363.018 44.0895ZM363.018 43.1754C363.263 43.1754 363.476 43.1339 363.657 43.0508C363.838 42.9656 363.979 42.8462 364.079 42.6928C364.179 42.5394 364.23 42.3626 364.232 42.1623C364.23 41.9535 364.176 41.7692 364.069 41.6094C363.965 41.4474 363.821 41.3207 363.638 41.229C363.457 41.1374 363.25 41.0916 363.018 41.0916C362.784 41.0916 362.575 41.1374 362.392 41.229C362.208 41.3207 362.063 41.4474 361.957 41.6094C361.852 41.7692 361.801 41.9535 361.803 42.1623C361.801 42.3626 361.85 42.5394 361.95 42.6928C362.051 42.8441 362.191 42.9624 362.372 43.0476C362.556 43.1328 362.771 43.1754 363.018 43.1754ZM363.018 40.1935C363.218 40.1935 363.395 40.1531 363.549 40.0721C363.704 39.9911 363.827 39.8782 363.916 39.7333C364.006 39.5884 364.051 39.4212 364.053 39.2315C364.051 39.044 364.007 38.88 363.919 38.7393C363.832 38.5966 363.71 38.4869 363.555 38.4102C363.399 38.3313 363.22 38.2919 363.018 38.2919C362.811 38.2919 362.629 38.3313 362.471 38.4102C362.316 38.4869 362.194 38.5966 362.107 38.7393C362.022 38.88 361.98 39.044 361.982 39.2315C361.98 39.4212 362.023 39.5884 362.11 39.7333C362.2 39.8761 362.322 39.989 362.478 40.0721C362.636 40.1531 362.816 40.1935 363.018 40.1935ZM368.776 44.0895C368.35 44.0895 367.969 44.0096 367.632 43.8498C367.296 43.6879 367.028 43.4663 366.83 43.185C366.634 42.9038 366.53 42.582 366.517 42.2198H367.667C367.689 42.4883 367.805 42.7077 368.016 42.8782C368.227 43.0465 368.48 43.1307 368.776 43.1307C369.009 43.1307 369.215 43.0774 369.396 42.9709C369.578 42.8643 369.72 42.7163 369.825 42.5266C369.929 42.337 369.98 42.1207 369.978 41.8778C369.98 41.6307 369.928 41.4112 369.821 41.2195C369.715 41.0277 369.569 40.8775 369.384 40.7688C369.198 40.658 368.985 40.6026 368.744 40.6026C368.548 40.6005 368.356 40.6367 368.166 40.7113C367.976 40.7859 367.826 40.8839 367.715 41.0053L366.645 40.8295L366.987 37.4545H370.784V38.4453H367.968L367.779 40.1808H367.818C367.939 40.038 368.111 39.9197 368.332 39.826C368.554 39.7301 368.797 39.6822 369.061 39.6822C369.457 39.6822 369.811 39.7759 370.122 39.9634C370.433 40.1488 370.678 40.4045 370.857 40.7305C371.036 41.0565 371.125 41.4293 371.125 41.8491C371.125 42.2816 371.025 42.6673 370.825 43.006C370.627 43.3427 370.351 43.608 369.997 43.8018C369.646 43.9936 369.239 44.0895 368.776 44.0895Z" fill="#FFFBFB"/>
<path d="M335.018 40.0895C334.543 40.0895 334.121 40.0096 333.752 39.8498C333.386 39.69 333.098 39.4716 332.889 39.1946C332.683 38.9155 332.58 38.5991 332.583 38.2454C332.58 37.9705 332.64 37.718 332.762 37.4879C332.883 37.2578 333.047 37.0661 333.254 36.9126C333.463 36.7571 333.695 36.658 333.95 36.6154V36.5707C333.614 36.4961 333.341 36.3246 333.132 36.0561C332.926 35.7855 332.823 35.4734 332.825 35.1197C332.823 34.783 332.917 34.4826 333.107 34.2184C333.296 33.9542 333.556 33.7464 333.887 33.5952C334.217 33.4418 334.594 33.3651 335.018 33.3651C335.438 33.3651 335.812 33.4418 336.14 33.5952C336.47 33.7464 336.73 33.9542 336.92 34.2184C337.111 34.4826 337.207 34.783 337.207 35.1197C337.207 35.4734 337.102 35.7855 336.891 36.0561C336.682 36.3246 336.412 36.4961 336.082 36.5707V36.6154C336.338 36.658 336.568 36.7571 336.773 36.9126C336.979 37.0661 337.143 37.2578 337.265 37.4879C337.388 37.718 337.45 37.9705 337.45 38.2454C337.45 38.5991 337.346 38.9155 337.137 39.1946C336.928 39.4716 336.64 39.69 336.274 39.8498C335.91 40.0096 335.491 40.0895 335.018 40.0895ZM335.018 39.1754C335.263 39.1754 335.476 39.1339 335.657 39.0508C335.838 38.9656 335.979 38.8462 336.079 38.6928C336.179 38.5394 336.23 38.3626 336.232 38.1623C336.23 37.9535 336.176 37.7692 336.069 37.6094C335.965 37.4474 335.821 37.3207 335.638 37.229C335.457 37.1374 335.25 37.0916 335.018 37.0916C334.784 37.0916 334.575 37.1374 334.392 37.229C334.208 37.3207 334.063 37.4474 333.957 37.6094C333.852 37.7692 333.801 37.9535 333.803 38.1623C333.801 38.3626 333.85 38.5394 333.95 38.6928C334.051 38.8441 334.191 38.9624 334.372 39.0476C334.556 39.1328 334.771 39.1754 335.018 39.1754ZM335.018 36.1935C335.218 36.1935 335.395 36.1531 335.549 36.0721C335.704 35.9911 335.827 35.8782 335.916 35.7333C336.006 35.5884 336.051 35.4212 336.053 35.2315C336.051 35.044 336.007 34.88 335.919 34.7393C335.832 34.5966 335.71 34.4869 335.555 34.4102C335.399 34.3313 335.22 34.2919 335.018 34.2919C334.811 34.2919 334.629 34.3313 334.471 34.4102C334.316 34.4869 334.194 34.5966 334.107 34.7393C334.022 34.88 333.98 35.044 333.982 35.2315C333.98 35.4212 334.023 35.5884 334.11 35.7333C334.2 35.8761 334.322 35.989 334.478 36.0721C334.636 36.1531 334.816 36.1935 335.018 36.1935ZM340.776 40.0895C340.35 40.0895 339.969 40.0096 339.632 39.8498C339.296 39.6879 339.028 39.4663 338.83 39.185C338.634 38.9038 338.53 38.582 338.517 38.2198H339.667C339.689 38.4883 339.805 38.7077 340.016 38.8782C340.227 39.0465 340.48 39.1307 340.776 39.1307C341.009 39.1307 341.215 39.0774 341.396 38.9709C341.578 38.8643 341.72 38.7163 341.825 38.5266C341.929 38.337 341.98 38.1207 341.978 37.8778C341.98 37.6307 341.928 37.4112 341.821 37.2195C341.715 37.0277 341.569 36.8775 341.384 36.7688C341.198 36.658 340.985 36.6026 340.744 36.6026C340.548 36.6005 340.356 36.6367 340.166 36.7113C339.976 36.7859 339.826 36.8839 339.715 37.0053L338.645 36.8295L338.987 33.4545H342.784V34.4453H339.968L339.779 36.1808H339.818C339.939 36.038 340.111 35.9197 340.332 35.826C340.554 35.7301 340.797 35.6822 341.061 35.6822C341.457 35.6822 341.811 35.7759 342.122 35.9634C342.433 36.1488 342.678 36.4045 342.857 36.7305C343.036 37.0565 343.125 37.4293 343.125 37.8491C343.125 38.2816 343.025 38.6673 342.825 39.006C342.627 39.3427 342.351 39.608 341.997 39.8018C341.646 39.9936 341.239 40.0895 340.776 40.0895Z" fill="#FFFBFB"/>
<path d="M307.41 35.5868C306.935 35.5868 306.513 35.5069 306.144 35.3471C305.778 35.1873 305.49 34.9689 305.282 34.6919C305.075 34.4128 304.973 34.0964 304.975 33.7427C304.973 33.4678 305.032 33.2154 305.154 32.9852C305.275 32.7551 305.439 32.5634 305.646 32.41C305.855 32.2544 306.087 32.1553 306.343 32.1127V32.068C306.006 31.9934 305.733 31.8219 305.524 31.5534C305.318 31.2828 305.215 30.9707 305.218 30.617C305.215 30.2803 305.309 29.9799 305.499 29.7157C305.688 29.4515 305.948 29.2438 306.279 29.0925C306.609 28.9391 306.986 28.8624 307.41 28.8624C307.83 28.8624 308.204 28.9391 308.532 29.0925C308.862 29.2438 309.122 29.4515 309.312 29.7157C309.503 29.9799 309.599 30.2803 309.599 30.617C309.599 30.9707 309.494 31.2828 309.283 31.5534C309.074 31.8219 308.805 31.9934 308.474 32.068V32.1127C308.73 32.1553 308.96 32.2544 309.165 32.41C309.371 32.5634 309.535 32.7551 309.657 32.9852C309.78 33.2154 309.842 33.4678 309.842 33.7427C309.842 34.0964 309.738 34.4128 309.529 34.6919C309.32 34.9689 309.033 35.1873 308.666 35.3471C308.302 35.5069 307.883 35.5868 307.41 35.5868ZM307.41 34.6727C307.655 34.6727 307.868 34.6312 308.049 34.5481C308.23 34.4629 308.371 34.3436 308.471 34.1901C308.571 34.0367 308.622 33.8599 308.625 33.6596C308.622 33.4508 308.568 33.2665 308.462 33.1067C308.357 32.9448 308.213 32.818 308.03 32.7264C307.849 32.6347 307.642 32.5889 307.41 32.5889C307.176 32.5889 306.967 32.6347 306.784 32.7264C306.6 32.818 306.456 32.9448 306.349 33.1067C306.245 33.2665 306.193 33.4508 306.196 33.6596C306.193 33.8599 306.242 34.0367 306.343 34.1901C306.443 34.3414 306.583 34.4597 306.764 34.5449C306.948 34.6301 307.163 34.6727 307.41 34.6727ZM307.41 31.6909C307.61 31.6909 307.787 31.6504 307.941 31.5694C308.096 31.4884 308.219 31.3755 308.308 31.2306C308.398 31.0857 308.443 30.9185 308.446 30.7288C308.443 30.5413 308.399 30.3773 308.311 30.2367C308.224 30.0939 308.103 29.9842 307.947 29.9075C307.791 29.8286 307.612 29.7892 307.41 29.7892C307.203 29.7892 307.021 29.8286 306.864 29.9075C306.708 29.9842 306.587 30.0939 306.499 30.2367C306.414 30.3773 306.372 30.5413 306.375 30.7288C306.372 30.9185 306.415 31.0857 306.502 31.2306C306.592 31.3734 306.714 31.4863 306.87 31.5694C307.028 31.6504 307.208 31.6909 307.41 31.6909ZM313.168 35.5868C312.742 35.5868 312.361 35.5069 312.024 35.3471C311.688 35.1852 311.42 34.9636 311.222 34.6823C311.026 34.4011 310.922 34.0793 310.909 33.7171H312.059C312.081 33.9856 312.197 34.2051 312.408 34.3755C312.619 34.5438 312.872 34.628 313.168 34.628C313.401 34.628 313.607 34.5747 313.789 34.4682C313.97 34.3617 314.112 34.2136 314.217 34.0239C314.321 33.8343 314.372 33.6181 314.37 33.3752C314.372 33.128 314.32 32.9085 314.214 32.7168C314.107 32.525 313.961 32.3748 313.776 32.2661C313.59 32.1553 313.377 32.0999 313.137 32.0999C312.941 32.0978 312.748 32.134 312.558 32.2086C312.368 32.2832 312.218 32.3812 312.107 32.5026L311.037 32.3269L311.379 28.9519H315.176V29.9426H312.36L312.171 31.6781H312.21C312.331 31.5353 312.503 31.4171 312.724 31.3233C312.946 31.2274 313.189 31.1795 313.453 31.1795C313.849 31.1795 314.203 31.2732 314.514 31.4607C314.825 31.6461 315.07 31.9018 315.249 32.2278C315.428 32.5538 315.518 32.9266 315.518 33.3464C315.518 33.7789 315.417 34.1646 315.217 34.5034C315.019 34.84 314.743 35.1053 314.389 35.2992C314.038 35.4909 313.631 35.5868 313.168 35.5868Z" fill="#FFFBFB"/>
<path d="M281.334 28.7249C280.858 28.7249 280.437 28.645 280.068 28.4852C279.702 28.3254 279.414 28.107 279.205 27.83C278.998 27.5509 278.896 27.2345 278.898 26.8808C278.896 26.606 278.956 26.3535 279.077 26.1234C279.199 25.8932 279.363 25.7015 279.569 25.5481C279.778 25.3925 280.01 25.2935 280.266 25.2508V25.2061C279.93 25.1315 279.657 24.96 279.448 24.6915C279.241 24.4209 279.139 24.1088 279.141 23.7551C279.139 23.4185 279.233 23.118 279.422 22.8538C279.612 22.5896 279.872 22.3819 280.202 22.2306C280.533 22.0772 280.91 22.0005 281.334 22.0005C281.753 22.0005 282.127 22.0772 282.455 22.2306C282.786 22.3819 283.046 22.5896 283.235 22.8538C283.427 23.118 283.523 23.4185 283.523 23.7551C283.523 24.1088 283.417 24.4209 283.207 24.6915C282.998 24.96 282.728 25.1315 282.398 25.2061V25.2508C282.654 25.2935 282.884 25.3925 283.088 25.5481C283.295 25.7015 283.459 25.8932 283.58 26.1234C283.704 26.3535 283.766 26.606 283.766 26.8808C283.766 27.2345 283.661 27.5509 283.453 27.83C283.244 28.107 282.956 28.3254 282.59 28.4852C282.225 28.645 281.807 28.7249 281.334 28.7249ZM281.334 27.8109C281.579 27.8109 281.792 27.7693 281.973 27.6862C282.154 27.601 282.295 27.4817 282.395 27.3283C282.495 27.1749 282.546 26.998 282.548 26.7977C282.546 26.5889 282.492 26.4046 282.385 26.2448C282.281 26.0829 282.137 25.9561 281.954 25.8645C281.773 25.7729 281.566 25.7271 281.334 25.7271C281.099 25.7271 280.89 25.7729 280.707 25.8645C280.524 25.9561 280.379 26.0829 280.273 26.2448C280.168 26.4046 280.117 26.5889 280.119 26.7977C280.117 26.998 280.166 27.1749 280.266 27.3283C280.366 27.4795 280.507 27.5978 280.688 27.683C280.871 27.7682 281.086 27.8109 281.334 27.8109ZM281.334 24.829C281.534 24.829 281.711 24.7885 281.864 24.7075C282.02 24.6266 282.142 24.5136 282.232 24.3687C282.321 24.2239 282.367 24.0566 282.369 23.867C282.367 23.6795 282.322 23.5154 282.235 23.3748C282.148 23.232 282.026 23.1223 281.871 23.0456C281.715 22.9668 281.536 22.9273 281.334 22.9273C281.127 22.9273 280.945 22.9668 280.787 23.0456C280.632 23.1223 280.51 23.232 280.423 23.3748C280.338 23.5154 280.296 23.6795 280.298 23.867C280.296 24.0566 280.339 24.2239 280.426 24.3687C280.515 24.5115 280.638 24.6244 280.794 24.7075C280.951 24.7885 281.131 24.829 281.334 24.829ZM287.236 28.7601C286.71 28.7601 286.258 28.6269 285.881 28.3606C285.506 28.0921 285.217 27.7054 285.015 27.2004C284.814 26.6933 284.714 26.0829 284.714 25.3691C284.716 24.6553 284.818 24.0481 285.018 23.5474C285.22 23.0445 285.509 22.661 285.884 22.3968C286.261 22.1326 286.712 22.0005 287.236 22.0005C287.76 22.0005 288.211 22.1326 288.588 22.3968C288.965 22.661 289.254 23.0445 289.454 23.5474C289.656 24.0502 289.758 24.6575 289.758 25.3691C289.758 26.085 289.656 26.6965 289.454 27.2036C289.254 27.7086 288.965 28.0942 288.588 28.3606C288.213 28.6269 287.762 28.7601 287.236 28.7601ZM287.236 27.7597C287.645 27.7597 287.968 27.5584 288.204 27.1557C288.443 26.7508 288.562 26.1553 288.562 25.3691C288.562 24.8492 288.508 24.4124 288.399 24.0587C288.291 23.705 288.137 23.4387 287.939 23.2597C287.741 23.0786 287.506 22.9881 287.236 22.9881C286.829 22.9881 286.507 23.1905 286.271 23.5953C286.034 23.998 285.915 24.5893 285.913 25.3691C285.911 25.8911 285.963 26.33 286.069 26.6859C286.178 27.0417 286.331 27.3102 286.53 27.4913C286.728 27.6702 286.963 27.7597 287.236 27.7597Z" fill="#FFFBFB"/>
<path d="M254.705 23.3382C254.392 23.336 254.087 23.2817 253.788 23.1752C253.49 23.0665 253.221 22.8907 252.983 22.6478C252.744 22.4028 252.555 22.0779 252.414 21.673C252.273 21.2661 252.204 20.7622 252.206 20.1613C252.206 19.601 252.266 19.1013 252.385 18.6624C252.504 18.2235 252.676 17.8527 252.9 17.5502C253.123 17.2455 253.393 17.0132 253.708 16.8534C254.026 16.6936 254.381 16.6137 254.773 16.6137C255.184 16.6137 255.548 16.6947 255.866 16.8566C256.185 17.0186 256.443 17.2402 256.639 17.5214C256.835 17.8005 256.957 18.1159 257.003 18.4674H255.837C255.777 18.216 255.655 18.0157 255.469 17.8666C255.286 17.7153 255.054 17.6397 254.773 17.6397C254.319 17.6397 253.969 17.8368 253.724 18.2309C253.481 18.6251 253.359 19.1663 253.357 19.8545H253.401C253.506 19.667 253.641 19.5061 253.807 19.3719C253.974 19.2377 254.161 19.1343 254.37 19.0619C254.581 18.9873 254.803 18.95 255.038 18.95C255.421 18.95 255.765 19.0417 256.07 19.2249C256.377 19.4081 256.62 19.6606 256.799 19.9824C256.978 20.302 257.066 20.6684 257.064 21.0818C257.066 21.5122 256.968 21.8989 256.77 22.2419C256.572 22.5828 256.296 22.8513 255.942 23.0473C255.589 23.2434 255.176 23.3403 254.705 23.3382ZM254.699 22.3794C254.931 22.3794 255.139 22.3229 255.322 22.21C255.506 22.0971 255.65 21.9447 255.757 21.7529C255.863 21.5612 255.916 21.346 255.914 21.1074C255.916 20.873 255.865 20.661 255.76 20.4713C255.658 20.2817 255.516 20.1315 255.335 20.0207C255.154 19.9099 254.947 19.8545 254.715 19.8545C254.542 19.8545 254.382 19.8875 254.232 19.9536C254.083 20.0196 253.953 20.1113 253.843 20.2284C253.732 20.3435 253.644 20.4777 253.58 20.6311C253.519 20.7824 253.487 20.9444 253.485 21.1169C253.487 21.3449 253.54 21.5548 253.644 21.7466C253.749 21.9383 253.893 22.0917 254.076 22.2068C254.259 22.3218 254.467 22.3794 254.699 22.3794ZM260.564 23.3733C260.037 23.3733 259.586 23.2402 259.209 22.9738C258.834 22.7054 258.545 22.3186 258.343 21.8137C258.142 21.3066 258.042 20.6961 258.042 19.9824C258.044 19.2686 258.145 18.6613 258.346 18.1606C258.548 17.6578 258.837 17.2743 259.212 17.0101C259.589 16.7458 260.04 16.6137 260.564 16.6137C261.088 16.6137 261.539 16.7458 261.916 17.0101C262.293 17.2743 262.582 17.6578 262.782 18.1606C262.984 18.6635 263.085 19.2707 263.085 19.9824C263.085 20.6983 262.984 21.3098 262.782 21.8169C262.582 22.3218 262.293 22.7075 261.916 22.9738C261.541 23.2402 261.09 23.3733 260.564 23.3733ZM260.564 22.373C260.973 22.373 261.296 22.1716 261.532 21.7689C261.771 21.3641 261.89 20.7686 261.89 19.9824C261.89 19.4625 261.836 19.0257 261.727 18.672C261.618 18.3183 261.465 18.052 261.267 17.873C261.069 17.6919 260.834 17.6013 260.564 17.6013C260.157 17.6013 259.835 17.8037 259.599 18.2086C259.362 18.6113 259.243 19.2025 259.241 19.9824C259.238 20.5044 259.291 20.9433 259.397 21.2991C259.506 21.6549 259.659 21.9234 259.857 22.1045C260.056 22.2835 260.291 22.373 260.564 22.373Z" fill="#FFFBFB"/>
<path d="M226.302 18.6741L229.086 13.1641V13.1194H225.855V12.1286H230.313V13.1418L227.533 18.6741H226.302ZM233.54 18.7636C233.065 18.7636 232.643 18.6837 232.274 18.5239C231.908 18.3641 231.62 18.1457 231.411 17.8687C231.204 17.5896 231.102 17.2731 231.104 16.9195C231.102 16.6446 231.162 16.3921 231.283 16.162C231.405 15.9319 231.569 15.7401 231.775 15.5867C231.984 15.4312 232.217 15.3321 232.472 15.2895V15.2447C232.136 15.1702 231.863 14.9986 231.654 14.7302C231.447 14.4596 231.345 14.1474 231.347 13.7937C231.345 13.4571 231.439 13.1567 231.628 12.8925C231.818 12.6283 232.078 12.4205 232.408 12.2692C232.739 12.1158 233.116 12.0391 233.54 12.0391C233.959 12.0391 234.333 12.1158 234.661 12.2692C234.992 12.4205 235.252 12.6283 235.441 12.8925C235.633 13.1567 235.729 13.4571 235.729 13.7937C235.729 14.1474 235.623 14.4596 235.413 14.7302C235.204 14.9986 234.934 15.1702 234.604 15.2447V15.2895C234.86 15.3321 235.09 15.4312 235.294 15.5867C235.501 15.7401 235.665 15.9319 235.786 16.162C235.91 16.3921 235.972 16.6446 235.972 16.9195C235.972 17.2731 235.867 17.5896 235.659 17.8687C235.45 18.1457 235.162 18.3641 234.796 18.5239C234.431 18.6837 234.013 18.7636 233.54 18.7636ZM233.54 17.8495C233.785 17.8495 233.998 17.808 234.179 17.7249C234.36 17.6396 234.501 17.5203 234.601 17.3669C234.701 17.2135 234.752 17.0366 234.754 16.8364C234.752 16.6276 234.698 16.4432 234.591 16.2834C234.487 16.1215 234.343 15.9947 234.16 15.9031C233.979 15.8115 233.772 15.7657 233.54 15.7657C233.305 15.7657 233.097 15.8115 232.913 15.9031C232.73 15.9947 232.585 16.1215 232.479 16.2834C232.374 16.4432 232.323 16.6276 232.325 16.8364C232.323 17.0366 232.372 17.2135 232.472 17.3669C232.572 17.5182 232.713 17.6364 232.894 17.7217C233.077 17.8069 233.293 17.8495 233.54 17.8495ZM233.54 14.8676C233.74 14.8676 233.917 14.8271 234.07 14.7462C234.226 14.6652 234.348 14.5523 234.438 14.4074C234.527 14.2625 234.573 14.0952 234.575 13.9056C234.573 13.7181 234.528 13.554 234.441 13.4134C234.354 13.2707 234.232 13.1609 234.077 13.0842C233.921 13.0054 233.742 12.966 233.54 12.966C233.333 12.966 233.151 13.0054 232.993 13.0842C232.838 13.1609 232.716 13.2707 232.629 13.4134C232.544 13.554 232.502 13.7181 232.504 13.9056C232.502 14.0952 232.545 14.2625 232.632 14.4074C232.722 14.5501 232.844 14.6631 233 14.7462C233.157 14.8271 233.337 14.8676 233.54 14.8676Z" fill="#FFFBFB"/>
</svg>
